<?xml version="1.0" encoding="utf-8"?>
<!-- Generator: Adobe Illustrator 26.0.3, SVG Export Plug-In . SVG Version: 6.00 Build 0)  -->
<svg version="1.1" id="Calque_1" xmlns="http://www.w3.org/2000/svg" xmlns:xlink="http://www.w3.org/1999/xlink" x="0px" y="0px"
	 viewBox="0 0 40 23.2" style="enable-background:new 0 0 40 23.2;" xml:space="preserve">
<style type="text/css">
	.st0{fill:#232D40;}
</style>
<path class="st0" d="M0.2,12.2L0.2,12.2l10.2,10.7c0.4,0.4,1.1,0.4,1.5,0c0.4-0.4,0.4-1.1,0-1.5l-8.4-8.7h35.3
	c0.6,0,1.1-0.5,1.1-1.1c0-0.6-0.5-1.1-1.1-1.1H3.6l8.4-8.7c0.2-0.2,0.3-0.5,0.3-0.8c0-0.3-0.1-0.6-0.3-0.7C11.7,0.1,11.4,0,11.2,0
	c-0.3,0-0.6,0.1-0.8,0.3L0.3,10.9l0,0C-0.1,11.3,0,11.8,0.2,12.2z"/>
</svg>
