<?xml version="1.0" encoding="utf-8"?>
<!-- Generator: Adobe Illustrator 26.0.3, SVG Export Plug-In . SVG Version: 6.00 Build 0)  -->
<svg version="1.1" id="Calque_1" xmlns="http://www.w3.org/2000/svg" xmlns:xlink="http://www.w3.org/1999/xlink" x="0px" y="0px"
	 viewBox="0 0 40 23.2" style="enable-background:new 0 0 40 23.2;" xml:space="preserve">
<style type="text/css">
	.st0{fill:#232D40;}
</style>
<path class="st0" d="M39.8,11.1L39.8,11.1L29.6,0.3c-0.4-0.4-1.1-0.4-1.5,0c-0.4,0.4-0.4,1.1,0,1.5l8.4,8.7H1.1
	C0.5,10.5,0,11,0,11.6c0,0.6,0.5,1.1,1.1,1.1h35.3l-8.4,8.7c-0.2,0.2-0.3,0.5-0.3,0.8c0,0.3,0.1,0.6,0.3,0.7
	c0.2,0.2,0.5,0.3,0.7,0.3c0.3,0,0.6-0.1,0.8-0.3l10.1-10.6l0,0C40.1,11.9,40,11.4,39.8,11.1z"/>
</svg>
