<?xml version="1.0" encoding="utf-8"?>
<!-- Generator: Adobe Illustrator 26.0.3, SVG Export Plug-In . SVG Version: 6.00 Build 0)  -->
<svg version="1.1" id="Logo" xmlns="http://www.w3.org/2000/svg" xmlns:xlink="http://www.w3.org/1999/xlink" x="0px" y="0px"
	 viewBox="0 0 200 200" style="enable-background:new 0 0 200 200;" xml:space="preserve">
<style type="text/css">
	.st0{fill:#FDF4EE;}
</style>
<g id="monkey">
	<g>
		<path class="st0" d="M114.5,60.8C114.5,60.8,114.5,60.8,114.5,60.8c-0.4,0-0.6-0.2-0.7-0.4c0-0.1-4.4-8.2,3.5-16.8
			c0.2-0.2,0.4-0.3,0.7-0.3c0.3,0,0.5,0.2,0.6,0.4c0,0.1,4.5,8.2-3.4,16.8C115,60.7,114.8,60.8,114.5,60.8L114.5,60.8z M117.6,45.7
			c-4.5,5.5-3.6,10.5-2.8,12.7C119.3,52.8,118.4,47.9,117.6,45.7z"/>
		<path class="st0" d="M85.4,60.8c-0.2,0-0.5-0.1-0.6-0.3c-4.1-4.5-4.8-8.8-4.7-11.6c0.1-3.1,1.2-5.1,1.3-5.2
			c0.1-0.2,0.4-0.4,0.6-0.4c0.3,0,0.5,0.1,0.7,0.3c4.1,4.4,4.8,8.7,4.7,11.6c-0.1,3.1-1.2,5.1-1.3,5.2C86,60.6,85.8,60.8,85.4,60.8
			C85.5,60.8,85.5,60.8,85.4,60.8L85.4,60.8z M82.3,45.7c-0.7,2.2-1.6,7.1,2.8,12.7C85.9,56.2,86.8,51.2,82.3,45.7z"/>
		<path class="st0" d="M142.3,69.9c-0.5,0-1-0.2-1.5-0.5c-0.5-0.4-0.8-1-0.9-1.6c-0.1-0.6,0.1-1.2,0.5-1.7c0.4-0.5,0.9-0.8,1.6-0.9
			c0.6-0.1,1.2,0.1,1.7,0.5c0.5,0.4,0.8,1,0.9,1.6s-0.1,1.2-0.5,1.7s-1,0.8-1.6,0.9C142.5,69.9,142.4,69.9,142.3,69.9L142.3,69.9z
			 M142.3,66.9C142.3,66.9,142.2,66.9,142.3,66.9c-0.3,0-0.4,0.1-0.5,0.3c-0.1,0.1-0.2,0.3-0.1,0.5c0,0.2,0.1,0.3,0.3,0.5
			c0.1,0.1,0.3,0.2,0.5,0.1c0.2,0,0.3-0.1,0.5-0.3c0.1-0.1,0.2-0.3,0.1-0.5v0c0-0.2-0.1-0.3-0.3-0.5
			C142.6,66.9,142.4,66.9,142.3,66.9z"/>
		<path class="st0" d="M57.7,69.9c-0.1,0-0.2,0-0.3,0c-0.6-0.1-1.2-0.4-1.6-0.9c-0.4-0.5-0.6-1.1-0.5-1.7l0,0
			c0.1-1.3,1.3-2.2,2.6-2.1c0.6,0.1,1.2,0.4,1.6,0.9c0.4,0.5,0.6,1.1,0.5,1.7C59.9,69,58.9,69.9,57.7,69.9L57.7,69.9z M57,67.5
			c0,0.2,0,0.4,0.1,0.5c0.1,0.1,0.3,0.2,0.5,0.3c0.4,0.1,0.7-0.2,0.8-0.6c0-0.2,0-0.4-0.1-0.5c-0.1-0.1-0.3-0.2-0.5-0.3
			C57.4,66.8,57.1,67.1,57,67.5L57,67.5z"/>
	</g>
	<g>
		<path class="st0" d="M119.4,60.8c-0.2,0-0.4-0.1-0.5-0.2c-0.2-0.2-0.3-0.4-0.3-0.7c0-0.1,0.6-7,8.9-9.1c0.3-0.1,0.5,0,0.7,0.2
			c0.2,0.2,0.3,0.4,0.3,0.7c0,0.1-0.5,6.9-8.9,9.1C119.5,60.8,119.4,60.8,119.4,60.8L119.4,60.8z M126.5,52.8
			c-4.1,1.5-5.5,4.2-6.1,5.9C124.6,57.2,126,54.5,126.5,52.8z"/>
		<path class="st0" d="M80.6,60.8c-0.1,0-0.1,0-0.2,0c-8.4-2.2-8.9-9-8.9-9.1c0-0.3,0.1-0.5,0.3-0.7c0.2-0.2,0.5-0.2,0.7-0.2
			c8.4,2.1,8.9,9,8.9,9.1c0,0.3-0.1,0.5-0.3,0.7C81,60.7,80.8,60.8,80.6,60.8L80.6,60.8z M73.4,52.8c0.5,1.6,2,4.4,6.1,5.9
			C79,57.1,77.5,54.3,73.4,52.8z"/>
		<path class="st0" d="M144.8,74.5c-1.1,0-2-0.8-2.1-1.9c-0.1-1.2,0.7-2.2,1.9-2.4c0.6-0.1,1.1,0.1,1.6,0.4c0.4,0.4,0.7,0.9,0.8,1.4
			l0,0c0.1,1.2-0.7,2.2-1.9,2.3C145,74.5,144.9,74.5,144.8,74.5L144.8,74.5z M144.8,71.9C144.8,71.9,144.8,71.9,144.8,71.9
			c-0.3,0-0.5,0.3-0.4,0.5c0,0.2,0.3,0.4,0.5,0.4c0.2,0,0.4-0.2,0.4-0.5c0-0.1-0.1-0.2-0.2-0.3C145,71.9,144.9,71.9,144.8,71.9
			L144.8,71.9z"/>
		<path class="st0" d="M55.1,74.9c-0.1,0-0.2,0-0.2,0c-1.2-0.1-2-1.2-1.9-2.3v0c0.1-1.2,1.2-2,2.3-1.9c1.2,0.1,2,1.2,1.9,2.3
			C57.1,74.1,56.2,74.9,55.1,74.9L55.1,74.9z M54.7,72.8c0,0.1,0,0.2,0.1,0.3c0.1,0.1,0.2,0.2,0.3,0.2c0.3,0,0.5-0.1,0.5-0.4
			c0-0.2-0.1-0.5-0.4-0.5C54.9,72.3,54.7,72.5,54.7,72.8L54.7,72.8L54.7,72.8z"/>
	</g>
	<g>
		<path class="st0" d="M142.1,95c0.2,0,0.5-0.1,0.7-0.3c0-0.1,4-5,7.9-5.1c1.4,0,2.7,0.6,3.8,1.9c0.3,0.4,0.8,0.4,1.2,0.1
			c0.4-0.3,0.4-0.8,0.1-1.2c-1.5-1.7-3.2-2.6-5.1-2.5c-4.7,0.1-9,5.5-9.2,5.8c-0.3,0.4-0.2,0.9,0.1,1.2
			C141.7,94.9,141.9,95,142.1,95L142.1,95z"/>
		<path class="st0" d="M44.3,91.6c0.4,0.3,0.9,0.3,1.2-0.1c1.1-1.3,2.4-2,3.8-1.9c3.9,0.1,7.9,5.1,7.9,5.1c0.2,0.2,0.4,0.3,0.7,0.3
			c0.2,0,0.4-0.1,0.5-0.2c0.4-0.3,0.4-0.8,0.1-1.2c-0.2-0.2-4.5-5.7-9.2-5.8c-1.9-0.1-3.7,0.8-5.1,2.5
			C43.9,90.8,43.9,91.3,44.3,91.6z"/>
		<path class="st0" d="M95.3,113.3c0.1,0.1,0.2,0.1,0.4,0.1c0.3,0,0.6-0.2,0.7-0.5c0.2-0.4,0-0.9-0.4-1.1l-1.3-0.7
			c-0.4-0.2-0.9,0-1.1,0.4c-0.2,0.4,0,0.9,0.4,1.1L95.3,113.3z"/>
		<path class="st0" d="M104.3,113.4c0.1,0,0.3,0,0.4-0.1l1.3-0.7c0.4-0.2,0.6-0.7,0.4-1.1c-0.2-0.4-0.7-0.6-1.1-0.4l-1.3,0.7
			c-0.4,0.2-0.6,0.7-0.4,1.1C103.7,113.2,104,113.4,104.3,113.4z"/>
		<path class="st0" d="M87.3,121.5c0,0.5,0.4,0.8,0.8,0.8h23.6c0.5,0,0.8-0.4,0.8-0.8s-0.4-0.8-0.8-0.8H88.2
			C87.7,120.6,87.3,121,87.3,121.5z"/>
		<path class="st0" d="M108.6,145.7c-5.6,1.6-11.7,1.6-17.2,0c-0.4-0.1-0.9,0.1-1,0.6c-0.1,0.4,0.1,0.9,0.6,1c2.9,0.8,6,1.2,9.1,1.2
			c3.1,0,6.1-0.4,9.1-1.2c0.4-0.1,0.7-0.6,0.6-1C109.5,145.9,109,145.6,108.6,145.7L108.6,145.7z"/>
		<path class="st0" d="M99.1,66.1L99.1,66.1c0.2,0.2,0.4,0.3,0.6,0.3c0.1,0,0.3,0,0.4-0.1c0.1,0,0.2-0.1,0.2-0.2
			c0.1,0,0.1-0.1,0.1-0.1l5.5-7.3c0,0,0.1-0.1,0.1-0.1c0.1-0.1,0.1-0.2,0.1-0.4c0-0.1,0-0.2-0.1-0.4c0,0,0-0.1-0.1-0.1l-5.4-7.6
			c-0.2-0.2-0.4-0.3-0.7-0.3c-0.2,0-0.5,0.1-0.7,0.3l-6.1,7.6c-0.2,0.3-0.2,0.7,0,1.1L99.1,66.1L99.1,66.1z M99.9,52l4.4,6.2l-4.5,6
			l-4.8-6C95,58.2,99.9,52,99.9,52z"/>
	</g>
	<path class="st0" d="M100,32.9c-37,0-67,30.1-67,67.1s30.1,67.1,67,67.1c37,0,67.1-30.1,67.1-67.1S137,32.9,100,32.9z M140.9,92.4
		L140.9,92.4c0.6-0.7,5.3-6.4,10.1-6.5c1.8,0,3.4,0.7,4.9,2.4c0,0,0,0.1,0.1,0.1l0.1,0.1c0,0,0.1,0.1,0.1,0.1c2.5,3,3.2,6.3,2,9.9
		c-1.7,5.2-7,9.2-8.2,9.5c-0.1,0-0.1,0-0.2,0.1c-0.1,0-5.6,3-11.7,2.1C139.5,105.3,141.1,99.1,140.9,92.4L140.9,92.4z M140.2,85.7
		c3.8-2,7.2-2.6,10.1-1.8c0.4,0.1,0.7,0.2,1,0.4H151c-4.3,0.1-8.2,3.7-10.1,5.7C140.7,88.5,140.5,87.1,140.2,85.7L140.2,85.7z
		 M136.5,109c-2.9-3.7-5.2-6.7-5.4-7.4l0-0.1c-0.2-1.2-0.6-2.4-1.3-3.3c1.8-3.2,3.9-9.2-0.1-16.4c-2.5-4.5-7.4-6.6-14.1-6.1
		c-4.5,0.3-9,1.9-13.1,4.5l-2.1,1.3c-0.2,0-0.3,0-0.5,0l-2.6-1.6c-4.1-2.5-8.5-4-12.9-4.3c-6.7-0.5-11.6,1.6-14.1,6.1
		c-4,7.2-1.9,13.2-0.1,16.4c-0.7,1-1.1,2.1-1.3,3.3l0,0.2c-0.2,0.7-2.5,3.8-5.6,7.5c-1.5-4.4-2.9-10.5-2.8-16.9v-0.6
		c0.1-2,0.3-4,0.7-5.9c1.8-8.5,7.1-15.1,15.6-19.4c0.1,0,0.1-0.1,0.2-0.1s3.6-2.8,14.3-3.4l8,10.8c0.2,0.2,0.4,0.3,0.6,0.3
		c0.3,0,0.5-0.2,0.7-0.3l8-10.8c10.6,0.6,14.1,3.4,14.1,3.4c0,0.1,0.1,0.1,0.2,0.1c8.5,4.3,13.8,10.9,15.6,19.4
		C140.3,94.1,138.6,102.8,136.5,109L136.5,109z M102.4,100.3c0,0.1,0,0.1,0.1,0.2c0.2,0.3,0.4,0.6,0.6,0.9c0,0,0,0,0.1,0v0
		c0,0,0,0,0,0c0,0,0,0,0.1,0c0.6,0.5,1.3,1.2,2.2,2c1.9,1.8,4.9,4.6,8,8c0,0,0,0.1,0.1,0.1c0.1,0.1,3.5,3.1,7.5,7.2
		c-2.6,9.3-11.1,15.8-20.8,15.9h-0.2c-9.8-0.1-18.3-6.6-20.9-16c4-4.1,7.4-7.1,7.5-7.2c0,0,0-0.1,0.1-0.1c3.1-3.4,6-6.3,8-8
		c0.9-0.8,1.6-1.5,2.3-2v0l0.1-0.1c0.2-0.3,0.5-0.6,0.6-0.9c0-0.1,0.1-0.1,0.1-0.2c0.8-1.4,1.2-2.9,1.2-4.5v-0.4
		c-0.1-2.2-1-4.3-2.5-5.9l0,0c-0.5-0.6-1.1-1.1-1.8-1.5c-1.5-0.9-3.2-1.4-4.9-1.4c-2.1,0-4.2,0.7-5.8,2c-0.2,0.2-0.4,0.3-0.6,0.5
		c0,0,0,0,0,0.1c-0.1,0-0.1,0.1-0.1,0.1l-6.3,6.3l-1.3-0.5c-0.9-0.6-2-0.4-2.8,0.3l-1.3,1.3c-1.5-3-2.9-8.2,0.4-14.2
		c2.2-3.9,6.4-5.7,12.5-5.2c4.1,0.3,8.3,1.7,12.2,4.1l2.6,1.6c0.1,0.1,0.2,0.1,0.2,0.2l0.4,0.3c0.3,0.2,0.6,0.2,0.9,0l0.4-0.2
		c0.1,0,0.2-0.1,0.3-0.2l2.1-1.3c3.8-2.5,8.1-4,12.3-4.3c6.1-0.5,10.3,1.3,12.5,5.2c3.4,6,2,11.2,0.4,14.2l-1.3-1.3
		c-0.8-0.8-1.9-0.9-2.8-0.3l-1.3,0.5l-6.4-6.4c0,0,0,0,0-0.1h0c-0.2-0.2-0.4-0.3-0.6-0.5c-0.1,0-0.1-0.1-0.2-0.1
		c-1.6-1.2-3.6-1.9-5.7-1.9c-1.7,0-3.4,0.5-4.9,1.4c-0.7,0.5-1.3,1-1.8,1.5h0c-1.5,1.6-2.4,3.7-2.5,5.9v0.5
		C101.2,97.4,101.6,99,102.4,100.3L102.4,100.3z M49,85.9c4.4,0.1,8.8,5,9.9,6.2c-0.2,6.9,1.5,13.5,3,17.9
		c-6.1,0.8-11.5-2.1-11.6-2.1c-0.1,0-0.1-0.1-0.2-0.1c-1.2-0.3-6.5-4.2-8.2-9.5c-1.2-3.6-0.5-6.9,2-9.9l0,0c0,0,0.1-0.1,0.1-0.1
		c0,0,0.1-0.1,0.1-0.1C45.6,86.7,47.1,85.9,49,85.9L49,85.9z M48.6,84.3c0.3-0.2,0.6-0.3,1-0.4c2.9-0.9,6.2-0.3,10,1.7
		c-0.3,1.4-0.5,2.8-0.6,4.3c-2-2.1-5.9-5.5-10-5.6L48.6,84.3L48.6,84.3z M100,71.7l-7.4-10v0l-0.3-0.4v0l-2.3-3.1l10-13.6L110,58.2
		C110,58.2,100,71.7,100,71.7z M34.8,100c0-35.7,28.8-64.7,64.4-65.2v8.1L88.2,57.7c-0.2,0.3-0.2,0.7,0,1l1.9,2.6
		c-9.8,0.7-13.5,3.2-14.1,3.7c-8.5,4.3-13.9,10.7-16.1,19c-4-2-7.6-2.6-10.8-1.6c-4.1,1.2-6,4.3-6.5,5.1l-0.1,0.1c0,0,0,0,0,0.1v0
		C39.8,91,39,94.9,40.3,99c1.8,5.5,7.2,9.9,9.3,10.5c0.7,0.3,4.9,2.4,10.1,2.4c0.5,0,0.9,0,1.4-0.1c-2,2.5-4.1,5.1-6,7.4
		c-4.1,5-9.2,11.3-11.2,14C38.1,123.5,34.8,112.1,34.8,100L34.8,100z M100,165.2c-23.2,0-43.6-12.2-55.1-30.4
		c2.2-2.8,8.3-10.4,11.6-14.4c2.8-3.4,5.2-6.3,7.1-8.8c0.1-0.1,0.2-0.2,0.2-0.3c4.5-5.5,6.7-8.5,6.8-9.4l0-0.2
		c0.2-1.4,0.9-2.7,1.9-3.7l1.4-1.4c0.2-0.2,0.5-0.2,0.7-0.1l0.2,0.1l1.9,0.7c0.3,0.1,0.6,0,0.9-0.2l6.7-6.7c0,0,0.2-0.1,0.2-0.2
		c0.2-0.2,0.3-0.3,0.5-0.4c1.4-1.1,3-1.6,4.8-1.6l-1.6,1.6l-9.2,9.4c-0.3,0.3-0.3,0.9,0,1.2c0.2,0.2,0.4,0.2,0.6,0.2
		s0.4-0.1,0.6-0.2l9.2-9.4c0,0,0,0,0-0.1l2.5-2.4c0.6,0.2,1.3,0.4,1.9,0.8c0.3,0.2,0.6,0.4,0.9,0.7l-13,12.4c-0.3,0.3-0.3,0.9,0,1.2
		c0.2,0.2,0.4,0.2,0.6,0.2s0.4-0.1,0.6-0.2l13-12.4c0.6,0.6,0.9,1.4,1.1,2.2l-12,11.7c-0.3,0.3-0.3,0.8,0,1.2
		c0.2,0.2,0.4,0.2,0.6,0.2c0.2,0,0.4-0.1,0.6-0.2l11.3-11v0.4c0,1.3-0.3,2.6-1,3.7c0,0,0,0.1-0.1,0.1c-0.1,0.2-0.2,0.4-0.4,0.6
		c0,0-0.1,0-0.1,0.1c-0.6,0.5-1.3,1.2-2.2,1.9c-1.9,1.8-5,4.7-8,8.1c-0.6,0.5-10,8.9-16.1,16.6c-0.1,0.1-0.1,0.1-0.2,0.2
		c-2.1,2.7-3.8,5.2-4.7,7.3c-0.1,0.2-0.2,0.4-0.2,0.6c-0.2,0.4,0.1,0.9,0.5,1.1c0.1,0,0.1,0,0.2,0c0,0,0.1,0,0.1,0
		c0.1,0,0.2,0,0.2,0c0.2-0.1,0.5-0.3,0.6-0.6c0.1-0.3,0.2-0.7,0.4-1.1c0.7-1.5,1.9-3.4,3.4-5.3c1.4,3,3.2,5.8,5.5,8.3
		c0.2,0.2,0.4,0.3,0.6,0.3c0.2,0,0.4-0.1,0.6-0.2c0.3-0.3,0.4-0.8,0.1-1.2c-2.3-2.6-4.2-5.5-5.5-8.6c2.1-2.6,4.5-5.2,6.8-7.6l0,0
		c3.1,9.6,12,16.2,22.1,16.3h0.2c10.2-0.1,19.1-6.7,22.2-16.3c2.4,2.4,4.8,5.1,6.9,7.6c-1.4,3.1-3.2,6-5.5,8.6
		c-0.3,0.3-0.3,0.9,0.1,1.2c0.2,0.2,0.4,0.2,0.6,0.2c0.2,0,0.5-0.1,0.6-0.3c2.3-2.5,4.1-5.3,5.5-8.2c1.8,2.4,3.2,4.6,3.8,6.3
		c0.1,0.4,0.4,0.6,0.8,0.6c0.1,0,0.2,0,0.2-0.1c0.5-0.2,0.7-0.6,0.5-1.1c-2.8-8.1-20.4-24-21.1-24.7c-3.1-3.5-6.1-6.4-8.1-8.2
		c-0.9-0.8-1.6-1.4-2.2-1.9c-0.2-0.2-0.3-0.5-0.5-0.7c0,0,0-0.1-0.1-0.1c-0.6-1.1-1-2.4-1-3.7v-0.4l11.2,11c0.2,0.2,0.4,0.2,0.6,0.2
		c0.2,0,0.4-0.1,0.6-0.2c0.3-0.3,0.3-0.9,0-1.2l-12-11.7c0.2-0.8,0.6-1.5,1.1-2.2l13,12.4c0.2,0.2,0.4,0.2,0.6,0.2
		c0.2,0,0.4-0.1,0.6-0.2c0.3-0.3,0.3-0.9,0-1.2l-13-12.4c0.3-0.2,0.5-0.5,0.9-0.7c0.6-0.4,1.2-0.6,1.9-0.8l2.5,2.5l9.2,9.4
		c0.2,0.2,0.4,0.2,0.6,0.2s0.4-0.1,0.6-0.2c0.3-0.3,0.3-0.9,0-1.2l-9.2-9.4l-1.6-1.6c1.7,0,3.4,0.5,4.7,1.6c0.2,0.1,0.3,0.3,0.5,0.4
		c0,0.1,0.1,0.1,0.1,0.1v0h0l0,0l6.7,6.7c0.2,0.2,0.6,0.3,0.9,0.2l1.9-0.7l0.2-0.1c0.2-0.2,0.6-0.1,0.7,0.1l1.4,1.4
		c0.2,0.2,0.3,0.4,0.5,0.6c0.1,0.1,0.1,0.1,0.2,0.2c0.6,0.9,1,1.9,1.2,3l0,0.1c0.1,0.9,2.3,3.9,6.7,9.3c0,0.1,0.1,0.1,0.2,0.2
		c2,2.4,4.4,5.4,7.3,8.9c3.5,4.2,9.4,11.5,11.6,14.4C143.6,153,123.2,165.2,100,165.2L100,165.2z M144.8,119.3c-1.9-2.3-4-4.9-6-7.4
		c0.5,0,1,0.1,1.4,0.1c5.2,0,9.4-2.1,10.1-2.4c2-0.6,7.5-5,9.3-10.5c1.4-4,0.6-8-2.3-11.4c0,0,0,0,0-0.1c0,0,0-0.1-0.1-0.1
		c-0.4-0.8-2.4-3.9-6.5-5.1c-3.2-1-6.9-0.4-11,1.7c-2.2-8.4-7.6-14.8-16.1-19.1c-0.6-0.4-4.2-2.9-13.9-3.6l1.9-2.6
		c0.2-0.3,0.2-0.7,0-1l-10.9-14.8v-8.1c35.6,0.4,64.4,29.5,64.4,65.2c0,12.1-3.3,23.5-9.2,33.2C154,130.6,149.1,124.5,144.8,119.3
		L144.8,119.3z"/>
	<path id="Cercle" class="st0" d="M100,0C44.8,0,0,44.9,0,100c0,55.2,44.8,100,100,100c55.1,0,100-44.9,100-100
		C200,44.9,155.1,0,100,0z M198.2,99.6l-15.7-7l14.1-10.3C197.7,88,198.2,93.8,198.2,99.6z M18.8,106.1L2.3,98.8l16.8-7.5
		C18.5,96.3,18.4,101.3,18.8,106.1z M19,108.4c0.5,4.9,1.5,9.8,2.8,14.5l-17.7-3.8L19,108.4z M4.6,78.5l18-3.8
		c-0.9,2.7-1.6,5.5-2.3,8.4c-0.4,2-0.7,4.1-1,6.1L4.6,78.5L4.6,78.5z M22,83.4c4.5-20.8,16.7-38.7,34.6-50.3
		c13.1-8.5,28-12.9,43.2-12.9c5.6,0,11.2,0.6,16.7,1.8c43,9.1,70.6,51.6,61.4,94.6c-4.4,20.9-16.7,38.7-34.5,50.3
		c-17.9,11.6-39.2,15.6-60,11.1c-20.8-4.5-38.7-16.7-50.3-34.6C21.5,125.6,17.6,104.3,22,83.4L22,83.4z M178.1,77.1l17.7,3.8
		l-14.9,10.8C180.5,86.7,179.5,81.8,178.1,77.1L178.1,77.1z M179.6,116.9c0.4-2,0.8-4.1,1.1-6.1l14.7,10.6l-18,3.8
		C178.3,122.6,179,119.8,179.6,116.9z M181.2,93.8l16.5,7.4l-16.8,7.5C181.5,103.7,181.5,98.7,181.2,93.8L181.2,93.8z M196,79.2
		l-16.8-3.6l11.7-13C193,67.9,194.8,73.5,196,79.2z M177.4,75c-1.5-4.7-3.5-9.3-5.8-13.7h18.2L177.4,75z M189.6,59.7h-17.2l8.7-15.1
		C184.3,49.3,187.2,54.4,189.6,59.7z M170.6,59.5c-2.5-4.3-5.4-8.4-8.6-12.2l17.8-3.8C179.7,43.5,170.6,59.5,170.6,59.5z
		 M179.2,41.9l-16.8,3.6l5.4-16.6C172,32.9,175.8,37.3,179.2,41.9L179.2,41.9z M160.6,45.7c-3.3-3.7-6.9-7.1-10.9-10.1l16.6-7.4
		L160.6,45.7z M165.4,26.7l-15.7,7l1.8-17.4C156.5,19.4,161.1,22.9,165.4,26.7z M148,34.2c-4-2.9-8.2-5.5-12.7-7.6l14.7-10.7
		L148,34.2L148,34.2z M148.8,14.7l-13.9,10.1L133,7.5C138.5,9.4,143.8,11.8,148.8,14.7L148.8,14.7z M133.3,25.7
		c-4.5-2-9.2-3.6-14.1-4.8l12.2-13.5C131.3,7.4,133.3,25.7,133.3,25.7z M120.4,3.9c3.2,0.7,6.4,1.5,9.6,2.5l-11.5,12.8l-5.4-16.6
		C115.5,2.9,117.9,3.4,120.4,3.9L120.4,3.9z M117.1,20.4c-0.1,0-0.1,0-0.2,0c-4.9-1-9.7-1.6-14.6-1.7l9.1-15.7
		C111.4,2.9,117.1,20.4,117.1,20.4z M109.9,2.3l-8.6,14.9L92.5,2C98.2,1.6,104.1,1.6,109.9,2.3L109.9,2.3z M100.2,18.6
		c-5,0-9.9,0.4-14.8,1.3L91,2.7L100.2,18.6L100.2,18.6z M89.3,2.3L84,18.7l-11.7-13C77.9,4.1,83.6,2.9,89.3,2.3L89.3,2.3z
		 M83.2,20.3c-4.8,1-9.6,2.5-14.2,4.4l1.9-18L83.2,20.3L83.2,20.3z M69.3,6.7l-1.8,17.1L53.3,13.5C58.4,10.8,63.7,8.5,69.3,6.7z
		 M67,25.6c-3.9,1.7-7.7,3.8-11.4,6.2c-0.5,0.3-1.1,0.7-1.6,1.1l-1.9-18L67,25.6L67,25.6z M50.5,15.1l1.8,17.1l-15.9-7.1
		C40.8,21.4,45.5,18,50.5,15.1z M52.3,34c-4.1,2.9-7.8,6.2-11.2,9.7l-5.6-17.2L52.3,34L52.3,34z M22.3,39.8c0.8-1.1,1.7-2.1,2.6-3.2
		c0.1-0.1,0.1-0.1,0.1-0.2c2.8-3.3,5.8-6.4,9-9.3l5.3,16.4L22.2,40C22.2,39.9,22.2,39.9,22.3,39.8L22.3,39.8z M39.6,45.4
		c-3.3,3.7-6.3,7.6-8.9,11.8l-9.1-15.7L39.6,45.4L39.6,45.4z M20.3,42.6l8.6,14.9H11.4C13.9,52.2,16.9,47.2,20.3,42.6z M29.5,59.1
		c-2.4,4.3-4.5,8.8-6.2,13.5L11.2,59.1C11.2,59.1,29.5,59.1,29.5,59.1z M10.1,60.4l11.5,12.8l-17,3.6C5.9,71.2,7.8,65.6,10.1,60.4
		L10.1,60.4z M3.8,80l13.9,10.1L1.8,97.2C1.9,91.4,2.6,85.7,3.8,80z M1.7,100.4l15.7,7L3.3,117.6C2.3,111.9,1.8,106.1,1.7,100.4z
		 M4,120.8l16.9,3.6l-11.7,13C6.9,132,5.2,126.4,4,120.8L4,120.8z M22.5,125c1.5,4.7,3.5,9.2,5.8,13.6H10.2L22.5,125L22.5,125z
		 M10.4,140.3h17.2l-8.7,15.1C15.6,150.7,12.8,145.6,10.4,140.3L10.4,140.3z M29.4,140.5c0.7,1.3,1.5,2.6,2.3,3.8
		c1.9,2.9,4,5.7,6.2,8.4l-17.7,3.8L29.4,140.5z M20.8,158.1l16.8-3.6l-5.4,16.6C28,167.1,24.2,162.7,20.8,158.1z M39.4,154.4
		c3.3,3.7,7,7.1,10.9,10.1l-16.5,7.3L39.4,154.4L39.4,154.4z M34.5,173.3l15.7-7l-1.8,17.4C43.5,180.6,38.8,177.1,34.5,173.3
		L34.5,173.3z M52,165.8c4,2.9,8.3,5.5,12.7,7.6L50.1,184L52,165.8L52,165.8z M51.2,185.3l13.9-10.1l1.8,17.4
		C61.5,190.6,56.2,188.2,51.2,185.3L51.2,185.3z M66.7,174.3c4.5,2,9.2,3.6,14,4.8l-12.1,13.5L66.7,174.3z M79.6,196.1
		c-3.2-0.7-6.4-1.5-9.5-2.5l11.5-12.8l5.4,16.6C84.5,197.1,82.1,196.6,79.6,196.1L79.6,196.1z M82.9,179.6c0.1,0,0.1,0,0.2,0
		c4.9,1.1,9.7,1.6,14.6,1.8l-9.1,15.7L82.9,179.6L82.9,179.6z M90.1,197.7l8.6-14.9l8.7,15.1C101.7,198.4,95.9,198.3,90.1,197.7z
		 M99.8,181.4h0.3c4.9,0,9.7-0.4,14.4-1.3l-5.6,17.2L99.8,181.4L99.8,181.4z M110.6,197.7l5.4-16.4l11.7,13
		C122.1,195.9,116.4,197.1,110.6,197.7L110.6,197.7z M116.8,179.7c4.9-1,9.6-2.5,14.2-4.4l-1.9,18L116.8,179.7L116.8,179.7z
		 M130.7,193.3l1.8-17.1l14.1,10.2C141.5,189.2,136.2,191.5,130.7,193.3L130.7,193.3z M133,174.4c3.9-1.7,7.7-3.8,11.4-6.2
		c0.6-0.4,1.1-0.7,1.6-1.1l1.9,18.1L133,174.4L133,174.4z M149.5,184.9l-1.8-17.1l15.9,7.1C159.2,178.6,154.4,182,149.5,184.9z
		 M147.7,166c4.1-2.9,7.8-6.2,11.2-9.8l5.6,17.2L147.7,166L147.7,166z M166,172.7l-5.3-16.4l17.1,3.6
		C174.2,164.6,170.3,168.9,166,172.7L166,172.7z M160.4,154.6c3.3-3.7,6.3-7.6,8.9-11.8l9,15.7L160.4,154.6z M179.7,157.4l-8.6-14.9
		h17.4C186.1,147.7,183.1,152.7,179.7,157.4L179.7,157.4z M170.4,140.9c2.5-4.3,4.5-8.8,6.2-13.5l12.1,13.5H170.4L170.4,140.9z
		 M189.9,139.6l-11.5-12.8l17.1-3.6C194.1,128.8,192.2,134.3,189.9,139.6z M196.2,120l-13.9-10.1l16-7.1
		C198,108.6,197.3,114.3,196.2,120L196.2,120z"/>
	<g>
		<path class="st0" d="M141,135.8c0-0.1-0.1-0.2-0.1-0.3c-0.1-0.2-0.3-0.3-0.5-0.3c0,0,0,0,0,0c-1.6-0.3-3.2-0.5-4.8-0.6h0
			c-0.6,0-1.2-0.1-1.8,0l0,0c-2.4,0-4.8,0.3-7.1,0.9l0,0c-0.5,0.1-1,0.2-1.5,0.4h0l-0.1,0c-0.1,0-0.3,0-0.4,0.1h0
			c-0.2,0.1-0.5,0.2-0.8,0.2l0,0c-3.6,1.2-7.2,3-10.5,5.4c-0.4,0.2-0.7,0.5-1.1,0.8c0,0-0.1,0-0.1,0.1c-0.1,0-0.2,0.1-0.2,0.2
			c-1.2,1-2.4,2-3.5,3.1v0c-0.7,0.7-1.4,1.4-2,2.2c-2.9,3.4-5.1,7.1-6.4,11.1c-1.3-3.9-3.5-7.7-6.4-11.1c-0.4-0.5-0.8-0.9-1.2-1.4
			c-0.2-0.2-0.4-0.4-0.6-0.6c-0.1-0.1-0.1-0.1-0.2-0.2l0,0c-1.1-1.1-2.2-2.1-3.5-3.1c-0.1-0.1-0.1-0.1-0.2-0.2c0,0-0.1-0.1-0.1-0.1
			c-0.3-0.3-0.7-0.6-1.1-0.8c-1.7-1.2-3.5-2.3-5.3-3.2c-1-0.5-2-1-3-1.4c-0.7-0.3-1.4-0.5-2.1-0.7l0,0c-0.1,0-0.1,0-0.2-0.1
			c0,0-0.1,0-0.1,0l-0.6-0.2l0,0c0,0,0,0,0,0l0,0c0,0,0,0,0,0c0,0-0.1,0-0.1,0c0,0,0,0-0.1,0c0,0-0.1,0-0.1,0
			c-0.3-0.1-0.6-0.2-0.9-0.3c-0.2-0.1-0.5-0.1-0.7-0.2h0c-1.4-0.3-2.7-0.6-3.9-0.7c-1.1-0.1-2.2-0.2-3.2-0.2c-0.4,0-0.8,0-1.2,0
			c-0.2,0-0.4,0-0.6,0c-1.7,0-3.3,0.2-4.9,0.6c0,0-0.1,0-0.1,0c-0.1,0-0.2,0.1-0.3,0.2c0,0,0,0-0.1,0.1v0l0,0c0,0,0,0.1-0.1,0.1
			c-0.1,0.2-0.2,0.4-0.1,0.5c0.3,3.2,1.2,6.4,2.7,9.5c0.8,1.7,1.8,3.4,2.9,5c0,0,0,0.1,0.1,0.1c0.7,1,1.4,1.9,2.2,2.8
			c0.7,0.8,1.4,1.6,2.1,2.3c0,0,0,0,0.1,0c1.3,1.3,2.7,2.5,4.2,3.6c3.1,1.4,6.4,2.6,9.8,3.5c-1.6-0.6-3.2-1.4-4.7-2.2l13.5-0.7
			l6.8,4.9c-0.6,0.1-1.3,0.2-2,0.2c1.1,0.1,2.3,0.1,3.4,0.1c1.1,0,2.2,0,3.3-0.1c-0.6,0-1.2-0.1-1.8-0.2l6.8-4.9h0l13.5,0.7
			c-1.5,0.9-3.1,1.6-4.7,2.2c3.4-0.9,6.7-2.1,9.8-3.5c3.3-2.4,6.1-5.4,8.4-8.5c0.1-0.1,0.2-0.2,0.2-0.3v0c3.1-4.5,5.1-9.5,5.6-14.5
			C141.1,136,141,135.9,141,135.8L141,135.8z M61.9,136.5c1-0.1,2-0.2,3-0.2h0.4c1.3,0,2.6,0,4,0.2c1.4,0.2,2.9,0.4,4.4,0.8
			c0.2,0,0.4,0.1,0.6,0.2l0,0l2.8,10l-5.7-4.1c0,0-0.1,0-0.1-0.1L61.9,136.5L61.9,136.5L61.9,136.5z M65.7,149.4L65.7,149.4
			c-1-1.5-1.9-3-2.6-4.5c-1.1-2.4-1.9-4.7-2.3-7.1v0l9.5,6.8c0,0,0.1,0.1,0.1,0.1l5.8,4.2L65.7,149.4L65.7,149.4z M75.6,159.1
			c-0.3-0.2-0.6-0.5-1-0.7c-1.7-1.2-3.2-2.5-4.5-3.9c0,0,0,0-0.1-0.1c-0.6-0.6-1.3-1.3-1.9-2.1c-0.4-0.4-0.8-0.9-1.1-1.4l11.5-0.6
			l11.1,8L75.6,159.1L75.6,159.1z M79.3,149l-3.1-11l0,0c0.5,0.2,1,0.3,1.5,0.6c1,0.4,1.9,0.8,2.9,1.3c1.8,0.9,3.5,1.9,5.1,3.1
			c0.3,0.2,0.6,0.5,1,0.7l0,0l3.7,13.3L79.3,149L79.3,149z M98.5,164.9L98.5,164.9L98.5,164.9L98.5,164.9z M99.1,161.9
			c-0.1,0.4-0.2,0.8-0.2,1.1l-6.2-4.5l-3.6-13c0,0,0,0,0,0c0.5,0.4,0.9,0.9,1.4,1.3c0.1,0.1,0.1,0.1,0.2,0.2c0,0,0.1,0.1,0.1,0.1
			c0.2,0.2,0.3,0.3,0.4,0.5C95.1,151.9,97.9,156.8,99.1,161.9C99.1,161.9,99.1,161.9,99.1,161.9z M135,136.2c1.1,0,2.1,0.1,3.1,0.2
			h0l-15.2,11l2.8-10h0C128.7,136.6,131.9,136.1,135,136.2L135,136.2z M107.3,158.6l-6.2,4.5v0c-0.1-0.4-0.2-0.7-0.2-1.1
			c1.5-6,5-11.7,10.1-16.3l0,0L107.3,158.6L107.3,158.6z M113.2,143.7L113.2,143.7c0.4-0.2,0.7-0.5,1-0.7c3-2.2,6.2-3.8,9.5-4.9
			l-3.1,11l-11.1,8L113.2,143.7L113.2,143.7z M133,151c-2.1,2.8-4.7,5.3-7.7,7.4c-0.3,0.2-0.7,0.5-1.1,0.7l-13.9-0.7l0,0l11.1-8
			L133,151C133,151,133,151,133,151L133,151z M139.1,137.8c-0.7,4-2.4,8-4.9,11.6l-10.5-0.5L139.1,137.8L139.1,137.8z"/>
		<path class="st0" d="M138.9,65.2c-0.7,0-1.3-0.2-1.8-0.6c-0.6-0.5-1-1.2-1.1-2c-0.1-0.8,0.1-1.5,0.6-2.2c0.5-0.6,1.2-1,2-1.1
			c0.8-0.1,1.5,0.1,2.2,0.6c0.6,0.5,1,1.2,1.1,2c0.2,1.6-1,3.1-2.6,3.3C139.1,65.1,139,65.2,138.9,65.2L138.9,65.2z M138.9,61
			c0,0-0.1,0-0.1,0c-0.3,0-0.6,0.2-0.8,0.5s-0.3,0.6-0.3,0.9s0.2,0.6,0.5,0.8c0.3,0.2,0.6,0.3,0.9,0.3c0.7-0.1,1.2-0.7,1.1-1.4
			c0-0.3-0.2-0.6-0.5-0.8C139.5,61.1,139.2,61,138.9,61L138.9,61z"/>
		<path class="st0" d="M61.1,65.2c-0.1,0-0.2,0-0.3,0c-0.8-0.1-1.5-0.5-2-1.1c-0.5-0.6-0.7-1.4-0.6-2.2l0,0c0.1-0.8,0.5-1.5,1.1-2
			c0.6-0.5,1.4-0.7,2.2-0.6c0.8,0.1,1.5,0.5,2,1.1c0.5,0.6,0.7,1.4,0.6,2.2c-0.1,0.8-0.5,1.5-1.1,2C62.4,64.9,61.7,65.2,61.1,65.2z
			 M61.1,61c-0.3,0-0.6,0.1-0.8,0.3c-0.3,0.2-0.4,0.5-0.5,0.8l0,0c0,0.3,0.1,0.7,0.3,0.9s0.5,0.4,0.8,0.5c0.3,0,0.7-0.1,0.9-0.3
			c0.3-0.2,0.4-0.5,0.5-0.8c0-0.3-0.1-0.7-0.3-0.9S61.5,61,61.2,61C61.2,61,61.1,61,61.1,61z M59,62L59,62z"/>
	</g>
</g>
</svg>
