<?xml version="1.0" encoding="utf-8"?>
<!-- Generator: Adobe Illustrator 26.3.1, SVG Export Plug-In . SVG Version: 6.00 Build 0)  -->
<svg version="1.1" id="Calque_1" xmlns="http://www.w3.org/2000/svg" xmlns:xlink="http://www.w3.org/1999/xlink" x="0px" y="0px"
	 viewBox="0 0 250 100" style="enable-background:new 0 0 250 100;" xml:space="preserve">
<style type="text/css">
	.st0{fill:#151F36;stroke:#151F36;stroke-width:0.1751;stroke-miterlimit:10;}
</style>
<g id="Recto_00000180341751433709290820000003520375031256392631_">
	<g>
		<g id="Sanzaru">
			<path id="S" class="st0" d="M44.4,41.7c-0.6-1-1.5-1.8-2.5-2.5c-1-0.7-2.2-1.2-3.6-1.6c-1.3-0.4-2.7-0.7-4.1-1.1
				c-1.4-0.3-2.8-0.7-4.1-1c-1.3-0.4-2.5-0.8-3.6-1.4c-1.1-0.6-1.9-1.3-2.5-2.2c-0.6-0.9-1-2-1-3.4c0-1.3,0.3-2.4,0.9-3.3
				c0.6-0.9,1.4-1.7,2.4-2.3c1-0.6,2-1,3.2-1.3c1.2-0.3,2.3-0.4,3.4-0.4c1.6,0,3.1,0.2,4.6,0.7c1.5,0.5,2.9,1.1,4.2,1.9
				c0.1,0.1,0.2,0.1,0.4,0.2c0.2,0.1,0.3,0.2,0.5,0.4c0.2,0.1,0.4,0.2,0.5,0.3c0.2,0.1,0.3,0.1,0.3,0.1c0.2,0,0.3-0.1,0.5-0.2
				c0.1-0.2,0.2-0.3,0.2-0.5c0-0.2,0-0.3-0.1-0.3c0-0.1-0.1-0.1-0.2-0.2c-0.6-0.6-1.4-1.1-2.3-1.6c-0.9-0.5-1.9-0.9-2.9-1.2
				c-1-0.3-2.1-0.6-3.1-0.7c-1-0.2-2-0.3-2.8-0.3c-1.3,0-2.6,0.2-3.9,0.5c-1.3,0.4-2.5,0.9-3.6,1.6c-1.1,0.7-2,1.6-2.7,2.7
				c-0.7,1.1-1,2.4-1,3.9c0,1.1,0.2,2.1,0.6,3c0.4,0.9,0.9,1.7,1.6,2.3c0.7,0.7,1.4,1.2,2.3,1.7c0.9,0.5,1.8,0.8,2.8,1.1
				c0.8,0.2,1.7,0.4,2.8,0.6c1.1,0.2,2.1,0.4,3.3,0.7c1.1,0.3,2.2,0.6,3.3,1c1.1,0.4,2.1,0.9,2.9,1.4c0.8,0.6,1.5,1.3,2.1,2.1
				c0.5,0.8,0.8,1.8,0.8,2.9c0,1.4-0.3,2.6-0.9,3.6c-0.6,1-1.4,1.9-2.4,2.5c-1,0.7-2.1,1.2-3.3,1.5c-1.2,0.3-2.4,0.5-3.6,0.5
				c-2.4,0-4.6-0.5-6.5-1.4c-1.9-0.9-3.8-2.1-5.6-3.6c-0.1-0.1-0.3-0.2-0.4-0.2c-0.2,0-0.4,0.1-0.5,0.2c-0.1,0.2-0.2,0.3-0.2,0.5
				c0,0.2,0.1,0.3,0.3,0.5c1.7,1.7,3.7,3,5.9,3.9c2.2,1,4.5,1.4,7,1.4c1.4,0,2.8-0.2,4.2-0.6c1.4-0.4,2.6-1,3.7-1.7
				c1.1-0.8,2-1.8,2.7-2.9c0.7-1.2,1-2.6,1-4.1C45.3,44,45,42.7,44.4,41.7z"/>
			<path id="A_00000007424852624935420360000010421824775948096661_" class="st0" d="M75.8,52.9c-0.4-0.9-0.8-2.1-1.4-3.6
				c-0.6-1.5-1.3-3.2-2-5.1c-0.8-1.9-1.6-3.9-2.4-5.9c-0.8-2-1.6-4-2.4-6c-0.8-2-1.5-3.8-2.2-5.4s-1.2-3-1.6-4.1
				c-0.5-1.1-0.7-1.8-0.9-2.2c-0.1-0.3-0.3-0.4-0.6-0.4s-0.5,0.1-0.7,0.4c-0.1,0.3-0.4,1-0.8,2.2c-0.4,1.1-1,2.5-1.6,4.1
				c-0.6,1.6-1.3,3.5-2.1,5.4c-0.8,2-1.5,4-2.3,6c-0.8,2-1.5,4-2.3,5.9c-0.7,1.9-1.4,3.6-2,5.1c-0.6,1.5-1,2.7-1.4,3.6
				c-0.4,0.9-0.5,1.4-0.5,1.4c0,0.4,0.1,0.6,0.4,0.7c0.1,0,0.1,0,0.1,0c0,0,0.1,0,0.1,0c0.3,0,0.5-0.1,0.7-0.4l10.2-26.5l10.5,26.5
				c0.1,0.3,0.3,0.4,0.6,0.4c0.1,0,0.1,0,0.1,0c0,0,0.1,0,0.1,0c0.3-0.1,0.4-0.3,0.4-0.6c0,0-0.2-0.4-0.4-1.2
				c-0.3-0.8-0.7-1.8-1.2-3c-0.5-1.3-1-2.7-1.7-4.3c-0.6-1.6-1.3-3.2-1.9-4.9s-1.3-3.4-2-5c-0.6-1.6-1.2-3.1-1.8-4.5
				c-0.6-1.4-1-2.5-1.4-3.4c-0.4-0.9-0.6-1.5-0.7-1.8l1.4-3.7l12.7,32c0.1,0.3,0.3,0.4,0.7,0.4c0.2,0,0.3-0.1,0.5-0.2
				c0.1-0.1,0.2-0.3,0.2-0.5C76.3,54.3,76.1,53.8,75.8,52.9z"/>
			<path id="N" class="st0" d="M108.9,20.7c0-0.2-0.1-0.3-0.2-0.5c-0.1-0.1-0.3-0.2-0.5-0.2c-0.2,0-0.3,0.1-0.5,0.2
				c-0.1,0.1-0.2,0.3-0.2,0.5v31.5L84.8,20.5c-0.2-0.2-0.3-0.3-0.5-0.3c-0.4,0-0.6,0.2-0.6,0.7c0,0.2,0,0.3,0.1,0.4l24,33.4
				c0.1,0.2,0.3,0.3,0.5,0.3c0.5,0,0.7-0.2,0.7-0.7L108.9,20.7z M102.9,53.1c-0.5-0.7-1.2-1.7-2-2.9c-0.8-1.2-1.8-2.5-2.8-4
				c-1.1-1.5-2.2-3-3.3-4.6c-1.1-1.6-2.3-3.1-3.4-4.7c-1.1-1.6-2.1-3-3-4.2c-0.9-1.3-1.7-2.4-2.4-3.3c-0.6-0.9-1.1-1.5-1.3-1.8
				c-0.2-0.2-0.4-0.3-0.6-0.3c-0.1,0-0.3,0.1-0.4,0.2c-0.1,0.2-0.2,0.3-0.2,0.4v26.3c0,0.5,0.2,0.7,0.7,0.7c0.2,0,0.3-0.1,0.5-0.2
				c0.1-0.1,0.2-0.3,0.2-0.5V30.1l17.5,24.6c0.1,0.2,0.3,0.3,0.5,0.3c0.2,0,0.3-0.1,0.5-0.2c0.2-0.1,0.2-0.3,0.2-0.5
				C103.7,54.2,103.4,53.8,102.9,53.1z"/>
			<path id="Z" class="st0" d="M141.2,28.2c0-0.2-0.1-0.4-0.2-0.5c-0.1-0.1-0.3-0.2-0.5-0.2c-0.2,0-0.4,0.1-0.5,0.3l-19.7,26.1
				c-0.1,0.1-0.2,0.3-0.2,0.4c0,0.2,0.1,0.4,0.3,0.5c0.2,0.1,0.4,0.2,0.5,0.2h19.2c0.2,0,0.3-0.1,0.5-0.2c0.2-0.1,0.2-0.3,0.2-0.5
				c0-0.5-0.2-0.7-0.7-0.7h-17.9l18.8-25.1C141.2,28.5,141.2,28.3,141.2,28.2z M141,20.2c-0.1-0.1-0.3-0.2-0.5-0.2h-25
				c-0.2,0-0.3,0.1-0.5,0.2c-0.1,0.1-0.2,0.3-0.2,0.5c0,0.2,0.1,0.4,0.2,0.5c0.1,0.1,0.3,0.2,0.5,0.2l23.7,0c-0.2,0.3-0.8,1-1.6,2.1
				c-0.8,1.1-1.8,2.4-3,4c-1.2,1.6-2.5,3.3-3.9,5.2c-1.4,1.9-2.9,3.8-4.3,5.8c-1.5,2-2.9,3.8-4.2,5.7c-1.4,1.8-2.6,3.5-3.6,4.9
				c-1.1,1.4-1.9,2.6-2.6,3.5c-0.6,0.9-1,1.4-1,1.5c0,0.2,0.1,0.4,0.2,0.5c0.1,0.1,0.3,0.2,0.5,0.2c0.2,0,0.4-0.1,0.6-0.3l24.9-33.4
				c0.1-0.1,0.1-0.2,0.1-0.2c0-0.1,0-0.1,0-0.3C141.2,20.5,141.2,20.4,141,20.2z"/>
			<path id="A" class="st0" d="M173.3,52.9c-0.4-0.9-0.8-2.1-1.4-3.6c-0.6-1.5-1.3-3.2-2-5.1c-0.8-1.9-1.6-3.9-2.4-5.9
				c-0.8-2-1.6-4-2.4-6c-0.8-2-1.5-3.8-2.2-5.4s-1.2-3-1.6-4.1c-0.5-1.1-0.7-1.8-0.9-2.2c-0.1-0.3-0.3-0.4-0.6-0.4
				c-0.3,0-0.5,0.1-0.7,0.4c-0.1,0.3-0.4,1-0.8,2.2c-0.4,1.1-1,2.5-1.6,4.1c-0.6,1.6-1.3,3.5-2.1,5.4c-0.8,2-1.5,4-2.3,6
				c-0.8,2-1.5,4-2.3,5.9c-0.7,1.9-1.4,3.6-2,5.1c-0.6,1.5-1,2.7-1.4,3.6c-0.4,0.9-0.5,1.4-0.5,1.4c0,0.4,0.1,0.6,0.4,0.7
				c0.1,0,0.1,0,0.1,0c0,0,0.1,0,0.1,0c0.3,0,0.5-0.1,0.7-0.4l10.2-26.5l10.5,26.5c0.1,0.3,0.3,0.4,0.6,0.4c0.1,0,0.1,0,0.1,0
				c0,0,0.1,0,0.1,0c0.3-0.1,0.4-0.3,0.4-0.6c0,0-0.2-0.4-0.4-1.2c-0.3-0.8-0.7-1.8-1.2-3c-0.5-1.3-1-2.7-1.7-4.3
				c-0.6-1.6-1.3-3.2-1.9-4.9c-0.7-1.7-1.3-3.4-2-5c-0.6-1.6-1.2-3.1-1.8-4.5c-0.6-1.4-1-2.5-1.4-3.4c-0.4-0.9-0.6-1.5-0.7-1.8
				l1.4-3.7l12.7,32c0.1,0.3,0.3,0.4,0.7,0.4c0.2,0,0.3-0.1,0.5-0.2c0.1-0.1,0.2-0.3,0.2-0.5C173.9,54.3,173.7,53.8,173.3,52.9z"/>
			<path id="R" class="st0" d="M200.1,50.5c-0.5-1.1-1-2.2-1.6-3.4c-0.6-1.2-1.1-2.4-1.6-3.5c-0.5-1.1-1-2.1-1.3-2.9
				c-0.4-0.8-0.6-1.3-0.7-1.6c-0.1-0.3-0.3-0.4-0.6-0.4h-8l0-2.9h8.1c0.2,0,0.3,0,0.5,0c1-0.2,2-0.5,2.8-0.9c0.9-0.5,1.6-1,2.2-1.7
				c0.6-0.7,1.1-1.5,1.4-2.4c0.4-0.9,0.5-1.9,0.5-2.9c0-1.1-0.2-2.1-0.6-3.1c-0.4-0.9-1-1.8-1.7-2.5c-0.7-0.7-1.5-1.2-2.5-1.6
				c-1-0.4-2-0.6-3.1-0.6h-12.7c-0.4,0-0.7,0.2-0.7,0.7v33.6c0,0.2,0.1,0.3,0.2,0.5c0.1,0.1,0.3,0.2,0.5,0.2c0.2,0,0.3-0.1,0.5-0.2
				c0.2-0.1,0.2-0.3,0.2-0.5V21.4h2.8v32.7c0,0.2,0.1,0.3,0.2,0.5c0.1,0.1,0.3,0.2,0.5,0.2c0.2,0,0.3-0.1,0.5-0.2
				c0.2-0.1,0.2-0.3,0.2-0.5v-14h7.7l6.6,14.4c0.1,0.3,0.3,0.4,0.6,0.4c0.2,0,0.3-0.1,0.5-0.2c0.1-0.1,0.2-0.3,0.2-0.5
				c0-0.1-0.2-0.5-0.5-1.2C200.9,52.5,200.5,51.6,200.1,50.5z M186.1,21.4h7.8c0.9,0,1.8,0.2,2.5,0.5c0.8,0.3,1.5,0.8,2.1,1.4
				c0.6,0.6,1.1,1.3,1.4,2c0.4,0.8,0.5,1.6,0.5,2.5c0,0.9-0.2,1.8-0.5,2.6c-0.3,0.8-0.8,1.5-1.4,2.1c-0.6,0.6-1.3,1.1-2.1,1.4
				c-0.8,0.4-1.6,0.5-2.6,0.5h-7.8V21.4z"/>
			<path id="U" class="st0" d="M229.5,20.7v25.6c0,1.2-0.2,2.3-0.7,3.3c-0.4,1-1,2-1.8,2.7c-0.8,0.8-1.7,1.4-2.7,1.9
				c-1,0.5-2.1,0.7-3.3,0.7h-3.4c-1.2,0-2.3-0.2-3.4-0.7c-1.1-0.5-2-1.1-2.8-1.9c-0.8-0.8-1.4-1.7-1.9-2.7c-0.5-1.1-0.7-2.2-0.7-3.4
				V20.7c0-0.2,0.1-0.3,0.2-0.5c0.1-0.1,0.3-0.2,0.5-0.2c0.2,0,0.3,0.1,0.5,0.2c0.1,0.1,0.2,0.3,0.2,0.5v25.6c0,1,0.2,1.9,0.6,2.8
				c0.4,0.9,0.9,1.7,1.6,2.3c0.7,0.7,1.4,1.2,2.3,1.6c0.9,0.4,1.8,0.6,2.8,0.6h3.4c1,0,1.9-0.2,2.8-0.6c0.9-0.4,1.6-0.9,2.3-1.6
				c0.6-0.7,1.1-1.5,1.5-2.3c0.4-0.9,0.6-1.8,0.6-2.8V21.4h-2.4l-3.4,8.5c-0.2,0.4-0.5,0.6-0.9,0.6h-0.8l3.7-9.2h-1.9l-3.4,8.5
				c-0.2,0.4-0.5,0.6-0.9,0.6h-0.8l3.7-9.2l0.2-0.6c0.2-0.4,0.6-0.7,1.1-0.7h6.6c0.2,0,0.3,0.1,0.5,0.2
				C229.4,20.4,229.5,20.5,229.5,20.7z"/>
		</g>
	</g>
</g>
<g>
	<path class="st0" d="M80.1,66.3h-8v5.5h7.5v1.1h-7.5v6h8v1.1H71V65.2h9.1V66.3z"/>
	<path class="st0" d="M99.4,65.2h1.2l-5.5,14.7h-1.5l-5.5-14.7h1.2l5.1,13.5L99.4,65.2z"/>
	<path class="st0" d="M118.7,66.3h-8v5.5h7.5v1.1h-7.5v6h8v1.1h-9.1V65.2h9.1V66.3z"/>
	<path class="st0" d="M138.5,65.2h1.1v14.7h-1.5l-9.2-13.4l0.1,7.2v6.2h-1.1V65.2h1.5l9.2,13.4l-0.1-7.2V65.2z"/>
	<path class="st0" d="M159.7,65.2v1.1h-5v13.6h-1.1V66.3h-5v-1.1H159.7z"/>
	<path class="st0" d="M173.6,71.9c0.8,0.2,1.4,0.3,1.9,0.4s0.9,0.3,1.5,0.5c0.5,0.2,0.9,0.5,1.2,0.7c0.3,0.3,0.5,0.6,0.7,1
		c0.2,0.4,0.3,0.9,0.3,1.4c0,1.4-0.5,2.4-1.5,3.1c-1,0.7-2.3,1.1-3.8,1.1c-1.8,0-3.2-0.4-4.2-1.2c-1-0.8-1.7-1.9-1.9-3.3h1.1
		c0.6,2.3,2.3,3.4,5,3.4c1.3,0,2.3-0.3,3.1-0.8s1.1-1.3,1.1-2.3c0-0.9-0.3-1.5-1-1.9s-1.8-0.7-3.6-1.1c-0.9-0.2-1.7-0.4-2.3-0.6
		c-0.6-0.2-1.1-0.4-1.6-0.7c-0.5-0.3-0.9-0.7-1.1-1.1c-0.2-0.4-0.3-0.9-0.3-1.5c0-1.3,0.5-2.3,1.5-3c1-0.7,2.2-1.1,3.7-1.1
		c1.5,0,2.8,0.3,3.7,1s1.6,1.5,1.9,2.6h-1.1c-0.7-1.7-2.2-2.5-4.5-2.5c-1.2,0-2.2,0.3-2.9,0.8c-0.7,0.5-1.1,1.3-1.1,2.3
		c0,0.7,0.3,1.3,0.9,1.6C170.6,71.1,171.8,71.5,173.6,71.9z"/>
</g>
</svg>
