<?xml version="1.0" encoding="UTF-8"?><svg id="Logo" xmlns="http://www.w3.org/2000/svg" width="200" height="200" viewBox="0 0 200 200"><defs><style>.cls-1{fill:#58a79a;}.cls-2{fill:#c06f57;}.cls-3{fill:#3e63aa;}.cls-4{fill:#ae3b75;}</style></defs><g id="monkey"><g><path class="cls-4" d="M114.5473,60.787c-.033,0-.0651-.0021-.0981-.0057-.2675-.0315-.503-.1895-.6341-.4251-.0454-.0816-4.4348-8.2418,3.4547-16.7688,.1807-.1957,.4369-.2975,.7116-.2629,.2654,.031,.5009,.187,.6321,.4199,.0454,.0806,4.4626,8.154-3.4495,16.7713-.159,.1741-.3832,.2711-.6166,.2711Zm3.0942-15.0742c-4.4709,5.4911-3.5899,10.4802-2.8474,12.6695,4.4843-5.5448,3.593-10.5029,2.8474-12.6695Z"/><path class="cls-4" d="M85.4183,60.787c-.2329,0-.4575-.0971-.6171-.2711-4.1141-4.4814-4.8458-8.7795-4.7348-11.5963,.1208-3.0823,1.2383-5.0914,1.2858-5.175,.1317-.2329,.3666-.3889,.6321-.4199,.2685-.0315,.5308,.0671,.7121,.2629,4.1038,4.436,4.8365,8.7376,4.7286,11.5648-.1183,3.0906-1.2275,5.1193-1.2745,5.204-.1306,.2355-.3666,.3936-.6336,.4251-.033,.0036-.0661,.0057-.0986,.0057Zm-3.0942-15.0747c-.7452,2.1656-1.638,7.1247,2.8479,12.67,.7415-2.1898,1.624-7.1784-2.8479-12.67Z"/><path class="cls-4" d="M142.2754,69.9088c-.5278,0-1.0369-.1766-1.4573-.5103-.4926-.391-.8035-.9503-.8748-1.5747-.0723-.6234,.1033-1.2385,.4947-1.7312,.3904-.4922,.9491-.8026,1.5729-.8744,.6269-.0749,1.2393,.1028,1.732,.4943,.4926,.391,.8035,.9503,.8748,1.5747s-.1043,1.239-.4947,1.7312-.9502,.8031-1.574,.8749c-.0919,.0103-.1828,.0155-.2737,.0155Zm.0062-3.0306c-.0258,0-.0527,.0015-.0785,.0046-.1797,.0201-.3408,.11-.4534,.2515-.1115,.1415-.1621,.3187-.1415,.4984,.0207,.1802,.1095,.3409,.251,.4535,.1415,.1126,.3243,.1596,.4978,.1425,.1807-.0212,.3419-.1105,.4544-.252,.1115-.142,.1621-.3187,.1415-.4984v-.001c-.0207-.1792-.1095-.3398-.251-.4524-.1208-.0961-.2685-.1467-.4203-.1467Z"/><path class="cls-4" d="M57.6865,69.9088c-.0893,0-.1792-.0052-.2701-.0155-.6243-.0718-1.1836-.3827-1.5745-.8749-.3904-.4922-.566-1.1073-.4947-1.7317l.0005-.0005c.1487-1.2886,1.3189-2.2136,2.6057-2.0685,.6243,.0718,1.1836,.3827,1.5745,.8749,.3904,.4922,.566,1.1073,.4947,1.7317-.1389,1.1982-1.1588,2.0845-2.3362,2.0845Zm-.6749-2.4305c-.0201,.1797,.0305,.3569,.1425,.4984,.1126,.1415,.2737,.2309,.4534,.2515,.3785,.0501,.708-.2241,.7508-.5955,.0201-.1792-.03-.3564-.1425-.4984-.1126-.1415-.2737-.2309-.4534-.2515-.3682-.0434-.7075,.2241-.7508,.5955h0Z"/></g><g><path class="cls-1" d="M119.3518,60.787c-.1931,0-.3832-.0671-.536-.1937-.2066-.172-.3181-.4333-.2995-.7019,.0041-.0692,.5742-6.9527,8.9274-9.0671,.2613-.0661,.535-.0031,.7405,.1673,.2055,.171,.3181,.4297,.3016,.6967-.0052,.0687-.5236,6.9114-8.9253,9.0723-.0692,.0176-.1394,.0263-.2086,.0263Zm7.1944-7.9402c-4.0661,1.4585-5.5429,4.2485-6.0717,5.8821,4.1146-1.4864,5.5646-4.2593,6.0717-5.8821Z"/><path class="cls-1" d="M80.6132,60.787c-.0697,0-.1399-.0088-.2086-.0263-8.4017-2.1609-8.9201-9.0036-8.9243-9.0723-.0165-.267,.0955-.5258,.3016-.6967,.206-.1699,.4808-.2319,.74-.1673,8.3526,2.1144,8.9222,8.9979,8.9268,9.0671,.0186,.2686-.093,.5299-.3,.7019-.1518,.1265-.3419,.1937-.5355,.1937Zm-7.1944-7.9418c.5061,1.6227,1.9571,4.4014,6.0826,5.8878-.5169-1.6357-1.9809-4.4236-6.0826-5.8878Z"/><path class="cls-1" d="M144.8316,74.4703c-1.0617,0-1.9819-.799-2.1069-1.8784-.1332-1.1631,.7044-2.2172,1.8652-2.3505,.5649-.0656,1.1175,.094,1.5605,.4457,.4441,.3527,.724,.8568,.789,1.4198h0c.1322,1.1615-.7033,2.2151-1.8642,2.3489-.0816,.0098-.1632,.0145-.2437,.0145Zm.001-2.5674c-.0165,0-.0341,.001-.0516,.0031-.2437,.0279-.4193,.2495-.3914,.4943,.0279,.2427,.2582,.4163,.4937,.3915,.2437-.0284,.4193-.25,.3914-.4948-.0134-.1178-.0723-.2231-.1652-.297-.0795-.0635-.1766-.0971-.2768-.0971Z"/><path class="cls-1" d="M55.1345,74.9382c-.0806,0-.1611-.0046-.2427-.0139-1.1629-.1338-1.9989-1.1884-1.8652-2.3499v-.0005c.1332-1.1621,1.1918-2.0055,2.3491-1.8645,1.1619,.1338,1.9979,1.1879,1.8642,2.3494-.1234,1.0799-1.0426,1.8794-2.1053,1.8794Zm-.4441-2.1723c-.0134,.1183,.0196,.2345,.094,.328,.0738,.093,.1797,.1518,.298,.1658,.2515,.0191,.4653-.1487,.4932-.3915,.0284-.2448-.1472-.4664-.3914-.4948-.2406-.0258-.4653,.1482-.4937,.3925h0Z"/></g><g><path class="cls-2" d="M142.0959,95.0005c.2498,0,.4967-.111,.6619-.3223,.0393-.0506,3.9804-5.0412,7.9174-5.1171,1.4263-.0434,2.6863,.6069,3.812,1.9399,.2994,.3542,.8282,.3971,1.1805,.0991,.3542-.2985,.3985-.8274,.1001-1.1807-1.454-1.7199-3.1841-2.5813-5.1297-2.5334-4.7354,.0946-9.0214,5.5305-9.2021,5.7618-.2841,.3652-.219,.891,.1456,1.1756,.1529,.1193,.3347,.1771,.5144,.1771Z"/><path class="cls-2" d="M44.2976,91.6001c.3538,.2985,.8815,.2545,1.1805-.0991,1.1257-1.333,2.3515-1.9822,3.813-1.9399,3.9364,.0759,7.8781,5.0665,7.9174,5.1171,.1652,.2113,.4116,.3223,.6609,.3223,.1803,0,.3615-.0578,.5143-.1771,.3645-.2845,.4302-.8104,.1461-1.1756-.1801-.2313-4.4667-5.6672-9.2025-5.7618-1.9423-.0515-3.6757,.814-5.1288,2.5334-.2985,.3533-.2541,.8822,.0991,1.1807Z"/><path class="cls-2" d="M95.2525,113.3027c.1203,.0599,.2479,.0882,.3738,.0882,.3073,0,.6032-.1694,.7499-.4632,.2071-.4137,.0393-.9167-.3749-1.1238l-1.34-.6699c-.4151-.2066-.9171-.0393-1.1237,.375-.2071,.4137-.0393,.9167,.3749,1.1238l1.34,.6699Z"/><path class="cls-2" d="M104.3394,113.3909c.125,0,.253-.0283,.3729-.0882l1.3406-.6699c.414-.2066,.5824-.7101,.3759-1.1238-.2077-.4128-.7085-.5821-1.1237-.375l-1.3406,.6699c-.4142,.2066-.5824,.7101-.3759,1.1238,.1476,.2938,.4431,.4632,.7508,.4632Z"/><path class="cls-2" d="M87.3409,121.4625c0,.4626,.3747,.8376,.8375,.8376h23.6083c.4627,0,.8377-.375,.8377-.8376s-.3749-.8378-.8377-.8378h-23.6083c-.4627,0-.8375,.375-.8375,.8378Z"/><path class="cls-2" d="M108.5903,145.7138c-5.5966,1.5628-11.6533,1.5593-17.2263-.0068-.4482-.1271-.9088,.1354-1.0332,.58-.125,.4458,.1348,.908,.58,1.0334,2.9392,.8253,5.9916,1.2443,9.0724,1.2443,3.0695,0,6.1171-.4163,9.0575-1.2375,.4461-.1239,.7064-.5863,.5815-1.0319-.1238-.4452-.5845-.7075-1.0317-.5816Z"/><path class="cls-2" d="M99.1339,66.079l.0927,.0927c.1548,.1546,.3404,.2475,.5569,.2475,.1237,0,.2783-.031,.4019-.1237,.0929-.031,.1856-.1239,.2475-.2166,.0619-.031,.0619-.0929,.0929-.1239l5.5056-7.3008c.031-.031,.0619-.0927,.0619-.1237,.0619-.1239,.0927-.2475,.0927-.3712,0-.1239-.0308-.2475-.0927-.3712,0-.031-.031-.0929-.0619-.1239l-5.351-7.5793c-.1546-.2164-.4021-.3402-.6806-.3402-.2164-.031-.4948,.0929-.6804,.3095l-6.0626,7.5791c-.2165,.3095-.2165,.7426,0,1.0519l5.877,7.3937Zm.8042-14.1067l4.3612,6.1872-4.5468,6.0323-4.7635-6.0323,4.9491-6.1872Z"/></g><path class="cls-2" d="M99.9691,32.9157c-36.9626,0-67.0277,30.1007-67.0277,67.0688s30.0651,67.0688,67.0277,67.0688c36.9934,0,67.0894-30.1005,67.0894-67.0688s-30.096-67.0688-67.0894-67.0688Zm40.9527,59.5204v-.0308c.5567-.6807,5.2891-6.342,10.0835-6.4657,1.8248,0,3.4023,.7424,4.856,2.3821,0,.031,.031,.0617,.0619,.0927l.0619,.0619c.031,.031,.0617,.0619,.0617,.0927,2.5056,3.0318,3.186,6.342,2.0106,9.8685-1.7321,5.2282-7.0214,9.188-8.1968,9.4663-.0617,0-.1237,.031-.2164,.0619-.0619,.031-5.5985,3.0009-11.723,2.1346,1.6085-4.764,3.155-11.0441,3.0004-17.6644Zm-.7115-6.7749c3.7737-2.0417,7.176-2.6295,10.1145-1.7632,.3712,.0927,.7114,.2164,1.0208,.3712h-.3712c-4.2685,.0927-8.2278,3.6504-10.1455,5.723-.1237-1.4539-.3092-2.877-.6187-4.3311Zm-3.7116,23.3257c-2.9385-3.6814-5.2274-6.713-5.4129-7.4247l-.031-.0617c-.1546-1.2065-.5877-2.3512-1.2683-3.3411,1.7941-3.1865,3.8973-9.2498-.0927-16.4269-2.5054-4.5167-7.3926-6.6203-14.1045-6.0945-4.485,.3404-9.032,1.918-13.1147,4.5477l-2.0725,1.3302c-.1856-.031-.3402-.031-.5258-.031l-2.5983-1.5778c-4.052-2.4748-8.506-3.9597-12.8982-4.2692-6.712-.5259-11.5991,1.5778-14.1045,6.0945-3.99,7.1771-1.9177,13.2404-.0927,16.4269-.6806,.99-1.1137,2.1036-1.2683,3.2792l-.031,.1546c-.2165,.7115-2.5364,3.805-5.5675,7.5483-1.4537-4.3928-2.9385-10.4873-2.7837-16.9218v-.5878c.0927-2.0419,.3402-4.0218,.7423-5.9088,1.8248-8.5383,7.0831-15.0657,15.5892-19.3968,.0619-.0308,.1237-.0617,.1546-.0927s3.5881-2.7533,14.2901-3.4029l8.0112,10.8275c.1546,.1856,.4021,.3402,.6496,.3402,.2783,0,.5258-.1546,.6804-.3402l8.0112-10.8275c10.5784,.6495,14.0736,3.3719,14.1045,3.3719,.0308,.0619,.0927,.0929,.1546,.1237,8.506,4.3311,13.7643,10.8585,15.5892,19.3968,1.825,8.4146,.0619,17.0766-2.0104,23.2638Zm-34.148-8.662c0,.0617,.031,.1237,.0929,.1856,.1546,.3093,.3712,.5878,.5877,.928,.031,0,.031,.031,.0617,.031v.031c.031,0,.031,.0308,.031,.0308,.031,0,.031,.031,.0619,.031,.5877,.5259,1.33,1.1756,2.2269,1.9799,1.9487,1.7634,4.9181,4.6094,7.9803,8.0432,0,.031,.031,.0619,.0619,.0929,.0927,.0619,3.4952,3.1245,7.5162,7.2081-2.6291,9.3115-11.1043,15.8391-20.8165,15.9318h-.2165c-9.7743-.0617-18.2803-6.6203-20.9094-15.9628,4.021-4.0526,7.3926-7.0844,7.4853-7.1771,0-.031,.031-.0619,.0619-.0929,3.0621-3.4338,6.0316-6.2799,7.9803-8.0432,.8969-.8044,1.6392-1.4541,2.2889-2.0109v-.0308l.0617-.0619c.2475-.3095,.464-.6188,.6187-.928,.031-.0619,.0619-.1239,.0929-.1548,.7733-1.3612,1.1754-2.9387,1.1754-4.5165v-.4331c-.0929-2.1965-.9898-4.3311-2.5054-5.9087l-.031-.031c-.526-.5878-1.1135-1.0519-1.825-1.5158-1.4537-.8973-3.1548-1.3921-4.8872-1.3921-2.1033,0-4.1756,.7115-5.8149,2.0417-.1856,.1546-.3713,.3402-.5877,.4951,0,.031-.031,.031-.031,.0617-.0619,.031-.0929,.0619-.1238,.1239l-6.3099,6.3108-1.2681-.4949c-.8971-.5568-2.0416-.4331-2.8148,.3402l-1.2681,1.2993c-1.5466-3.0007-2.9385-8.1671,.4329-14.1994,2.1962-3.9289,6.4027-5.6923,12.4963-5.2282,4.1139,.3093,8.3205,1.7014,12.1559,4.0526l2.6291,1.5778c.0619,.0617,.1548,.1237,.2475,.1546l.4331,.2783c.2783,.1856,.6187,.1856,.8969,0l.3712-.2474c.0929-.031,.1856-.0929,.2785-.1856l2.1342-1.3304c3.8354-2.5058,8.1039-3.9906,12.3105-4.2999,6.0935-.4641,10.3001,1.2993,12.4961,5.2282,3.3716,6.0323,1.9796,11.1987,.4331,14.1994l-1.2681-1.2993c-.7733-.7734-1.9177-.8971-2.8148-.3402l-1.2681,.4949-6.4337-6.4347q-.031-.0308-.031-.0617h-.0308c-.1858-.1548-.3713-.3404-.5569-.4951-.0617-.031-.0927-.0617-.1546-.0927-1.6083-1.2375-3.6189-1.949-5.6604-1.949-1.7321,0-3.4333,.4949-4.887,1.3921-.7115,.4639-1.33,.959-1.825,1.5158h-.031c-1.5156,1.6085-2.4125,3.7431-2.5054,5.9087v.4641c0,1.5778,.4021,3.1553,1.1754,4.4857Zm-53.387-14.3852c4.4233,.0929,8.8464,5.0116,9.898,6.2491-.1546,6.9296,1.4848,13.457,3.0314,17.9118-6.0626,.8353-11.5374-2.1036-11.5991-2.1346-.0619-.031-.1238-.0619-.1858-.0619-1.1752-.2783-6.4645-4.2382-8.1966-9.4663-1.1754-3.5575-.495-6.8677,1.9796-9.8685l.0308-.0308c.031-.031,.0929-.0619,.1238-.1239,.031-.031,.0619-.0617,.0619-.0927,1.4537-1.6397,3.0312-2.3821,4.856-2.3821Zm-.3402-1.6705c.3094-.1548,.6496-.2785,1.0208-.3712,2.8766-.8663,6.2481-.3095,9.9597,1.6705-.3092,1.3612-.5258,2.7843-.6185,4.2692-2.0106-2.1036-5.877-5.4757-9.9909-5.5684h-.3712Zm51.3456-12.5291l-7.4235-10.0232v-.031l-.2785-.3712v-.0308l-2.3198-3.1245,10.0218-13.5809,10.0526,13.5809-10.0526,13.5807Zm-65.2027,28.2444c0-35.6689,28.7968-64.7486,64.3675-65.1817v8.1054l-10.9187,14.7562c-.2165,.2785-.2165,.6807,0,.99l1.9177,2.5677c-9.7741,.7424-13.4859,3.2173-14.0736,3.6504-8.4751,4.3311-13.857,10.7346-16.0842,19.0256-3.9591-2.0419-7.6089-2.5677-10.7949-1.6087-4.052,1.1756-6.0316,4.3309-6.4645,5.1043l-.0619,.0619q-.031,.031-.031,.0619v.031c-2.8456,3.4648-3.6498,7.3935-2.2889,11.4461,1.825,5.5067,7.207,9.8995,9.2793,10.5182,.6806,.3402,4.9181,2.4439,10.1145,2.4439,.4639,0,.9279-.0308,1.4227-.0617-2.0104,2.4748-4.1137,5.0735-6.0314,7.3627-4.0829,4.9806-9.1557,11.3224-11.228,13.9829-5.7841-9.7447-9.1247-21.129-9.1247-33.256Zm65.2027,65.2127c-23.1675,0-43.551-12.1577-55.1191-30.4407,2.196-2.8462,8.2585-10.3636,11.5682-14.4162,2.8146-3.4338,5.1654-6.3418,7.1141-8.7549,.0619-.0927,.1546-.1856,.2165-.2783,4.4541-5.5376,6.6502-8.4764,6.7739-9.3736l.031-.1856c.2165-1.3921,.866-2.6914,1.8558-3.7123l1.3919-1.4229c.1856-.1856,.5258-.2166,.7423-.0619l.1856,.0929,1.856,.7115c.3092,.1237,.6494,.031,.8969-.1856l6.6501-6.6822c.031-.0308,.1548-.1237,.1858-.1546,.1546-.1546,.3092-.3093,.4639-.433,1.361-1.0829,3.0312-1.6087,4.7633-1.6087l-1.6083,1.6087-9.1557,9.4354c-.3092,.3402-.3092,.8661,.031,1.2064,.1546,.1548,.3712,.2166,.5877,.2166s.4331-.0617,.5877-.2474l9.1557-9.4356q.0308-.0308,.0308-.0617l2.4746-2.444c.6494,.1548,1.2991,.4331,1.8867,.8044,.3402,.2166,.6187,.4331,.8969,.6807l-12.9911,12.4361c-.3092,.3404-.3402,.8663,0,1.2065,.1548,.1546,.3712,.2475,.5877,.2475s.4331-.0929,.5877-.2475l12.9601-12.3743c.5567,.6497,.9279,1.3921,1.1444,2.1655l-12.0013,11.6936c-.3402,.3095-.3402,.8353-.0308,1.1756,.1546,.1856,.4021,.2475,.6185,.2475,.1856,0,.4021-.0619,.5569-.2166l11.2588-10.9512v.4022c0,1.3302-.3092,2.5677-.9898,3.7123,0,.0308-.0308,.0927-.0617,.1237-.1238,.1856-.2475,.4331-.3712,.6188-.031,.031-.0619,.031-.0619,.0617-.6187,.4951-1.33,1.1756-2.2271,1.949-1.9485,1.7943-4.9799,4.6713-8.011,8.1361-.5567,.4641-9.9599,8.9405-16.1151,16.6435-.0617,.0619-.0927,.1239-.1546,.1856-2.1033,2.6604-3.8354,5.1972-4.6706,7.3008-.0927,.1858-.1546,.3714-.2165,.557-.1546,.433,.0619,.8971,.495,1.0517,.0617,.031,.0927,.031,.1546,.031,.031,.031,.0929,.031,.1237,.031,.0929,0,.1856,0,.2475-.031,.2475-.0929,.464-.2785,.5567-.5568,.1238-.3402,.2475-.7115,.4331-1.0829,.7423-1.5468,1.9487-3.3719,3.4023-5.2899,1.4229,3.0007,3.2169,5.785,5.4749,8.2598,.1546,.1856,.3712,.2785,.6187,.2785,.1856,0,.4021-.0619,.5567-.2166,.3402-.3095,.3712-.8353,.0619-1.1756-2.3198-2.5677-4.1758-5.4757-5.5368-8.6002,2.0725-2.5675,4.516-5.2282,6.8358-7.6101l.031-.031c3.1241,9.5591,11.9703,16.2103,22.1156,16.3032h.2475c10.1762-.0619,19.0844-6.7132,22.2085-16.2723,2.3508,2.4129,4.7943,5.0733,6.8668,7.6411-1.361,3.0936-3.2169,6.0016-5.5368,8.5693-.3092,.3402-.2783,.8661,.0619,1.1756,.1546,.1546,.3712,.2166,.5567,.2166,.2165,0,.464-.0929,.6187-.2785,2.2579-2.4748,4.052-5.2591,5.4749-8.2288,1.7939,2.3512,3.2168,4.5784,3.8354,6.3418,.1237,.3712,.4331,.5878,.8042,.5878,.0927,0,.1856-.031,.2473-.0619,.464-.1546,.6806-.6188,.526-1.0517-2.7529-8.1361-20.3836-24.0372-21.095-24.6559-3.0931-3.4648-6.1245-6.3728-8.1039-8.1671-.8662-.7734-1.5775-1.4229-2.1962-1.949-.1856-.2474-.3402-.4639-.464-.6805,0-.031-.0308-.0929-.0617-.1237-.6496-1.1446-.9589-2.3821-.9589-3.7123v-.4022l11.228,10.9512c.1856,.1546,.3712,.2166,.5877,.2166,.2164,0,.4329-.0619,.6185-.2475,.3094-.3402,.3094-.8661-.0308-1.1756l-12.0013-11.6936c.2473-.7734,.6185-1.5158,1.1444-2.1965l12.9601,12.4053c.1546,.1546,.3712,.2475,.5877,.2475,.2164,0,.4329-.0929,.5877-.2475,.3402-.3402,.3092-.8661,0-1.2065l-12.9601-12.4051c.2783-.2475,.5258-.4951,.866-.7117,.5877-.3712,1.2373-.6188,1.8867-.8044l2.5054,2.5058,9.1557,9.4356c.1546,.1856,.3712,.2474,.5877,.2474s.4331-.0617,.5877-.2166c.3402-.3402,.3402-.8661,.031-1.2064l-9.1557-9.4354-1.5775-1.5778c1.7014,0,3.4025,.4949,4.7325,1.5778,.1546,.1237,.3092,.2783,.4948,.433,.031,.0619,.0619,.0619,.0929,.0929v.031h.031l.0308,.0308,6.6502,6.6822c.2165,.2166,.5877,.3093,.8969,.1856l1.856-.7115,.1856-.0929c.2165-.1546,.5567-.1237,.7423,.0619l1.3919,1.4229c.1856,.1856,.3402,.3714,.4948,.5878,.0619,.0619,.0929,.1239,.1856,.2166,.6187,.8663,1.0208,1.8872,1.1754,2.9699l.031,.0619c.1237,.928,2.2889,3.867,6.6812,9.3425,.0308,.0619,.0927,.1239,.1546,.1856,1.9794,2.444,4.3612,5.4138,7.2687,8.9405,3.4643,4.2382,9.3722,11.539,11.5682,14.3852-11.5372,18.283-31.9516,30.4717-55.1499,30.4717Zm44.8808-45.9396c-1.8867-2.2892-4.021-4.8879-6.0314-7.3627,.4948,.031,.9589,.0617,1.4227,.0617,5.1964,0,9.4339-2.1036,10.1145-2.4439,2.0414-.6188,7.4543-5.0116,9.2793-10.5182,1.361-4.0216,.5567-7.9503-2.2889-11.4461q0-.031-.031-.0619c0-.031-.031-.0619-.0619-.0929-.4331-.7734-2.4435-3.9287-6.4645-5.1043-3.2479-.959-6.9285-.4022-10.9807,1.7014-2.165-8.3837-7.578-14.7872-16.084-19.1183-.5877-.4331-4.2375-2.877-13.888-3.6194l1.9177-2.5987c.2164-.3093,.2164-.7115,0-.99l-10.9187-14.7562v-8.1054c35.5707,.4331,64.3675,29.5129,64.3675,65.1817,0,12.127-3.3406,23.4804-9.1557,33.2252-2.0414-2.6297-6.8976-8.6622-11.197-13.9521Z"/><path id="Cercle" class="cls-2" d="M99.9999,0C44.85,0,0,44.8569,0,99.9845c0,55.1586,44.85,100.0155,99.9999,100.0155,55.1191,0,100.0001-44.8569,100.0001-100.0155C200,44.8569,155.119,0,99.9999,0Zm98.237,99.6133l-15.7128-7.0223,14.1353-10.2707c1.0208,5.6921,1.5775,11.4771,1.5775,17.293Zm-179.431,6.5276l-16.548-7.332,16.7955-7.4864c-.5567,4.9498-.6187,9.9305-.2475,14.8184Zm.1856,2.2273c.495,4.9189,1.4539,9.7756,2.8458,14.5399l-17.6927-3.7743,14.8469-10.7656Zm-14.3519-29.8839l17.9709-3.8052c-.8662,2.7224-1.6394,5.5376-2.2581,8.3837-.4329,2.0417-.7423,4.0526-1.0206,6.0943l-14.6922-10.6727Zm17.3523,4.9187c4.4541-20.8197,16.7028-38.7007,34.5809-50.3016,13.0838-8.4764,28.0235-12.8692,43.2415-12.8692,5.5677,0,11.1662,.5878,16.7338,1.7634,43.025,9.1261,70.5846,51.5699,61.429,94.5708-4.4231,20.8507-16.7028,38.7005-34.5499,50.3014-17.8782,11.6009-39.1898,15.5608-60.0063,11.137-20.8475-4.4548-38.6948-16.7054-50.2939-34.5862-11.5991-17.85-15.5582-39.1648-11.1351-60.0155Zm156.1089-6.3418l17.7236,3.7741-14.8778,10.8275c-.495-4.9806-1.4539-9.8685-2.8458-14.6016Zm1.5158,39.8453c.4329-2.0109,.7733-4.0526,1.0515-6.0635l14.6613,10.6419-17.9709,3.836c.8971-2.7531,1.6704-5.5374,2.2581-8.4144Zm1.5466-23.0782l16.548,7.3627-16.7646,7.4864c.5258-5.0116,.5877-9.9922,.2165-14.8491Zm14.8469-14.6635l-16.8265-3.5885,11.6609-12.9621c2.1962,5.3209,3.9283,10.8893,5.1656,16.5506Zm-18.5896-4.1455c-1.5156-4.7331-3.4952-9.3115-5.846-13.6736h18.1565l-12.3105,13.6736Zm12.1559-15.344h-17.1976l8.6916-15.1276c3.2787,4.764,6.1243,9.8376,8.506,15.1276Zm-19.0227-.1856c-2.4744-4.3311-5.351-8.3837-8.5678-12.1887l17.7544-3.7743-9.1866,15.963Zm8.6608-17.5715l-16.7955,3.5885,5.382-16.6125c4.1756,3.9906,8.011,8.3837,11.4136,13.024Zm-18.6205,3.7741c-3.3096-3.6814-6.9285-7.0842-10.8878-10.1468l16.5792-7.3937-5.6914,17.5405Zm4.8252-18.9946l-15.713,7.0225,1.825-17.3859c4.9489,3.0316,9.5885,6.5274,13.888,10.3634Zm-17.4451,7.5483c-3.99-2.908-8.2276-5.4755-12.7436-7.6411l14.6613-10.6729-1.9177,18.3139Zm.8042-19.5514l-13.919,10.1161-1.8558-17.3549c5.4747,1.949,10.7639,4.3619,15.7748,7.2389Zm-15.5274,11.0133c-4.4541-2.0109-9.1555-3.6196-14.0736-4.7952l12.1559-13.488,1.9177,18.2832ZM120.4145,3.8979c3.1858,.6807,6.4027,1.5158,9.5576,2.5368l-11.5063,12.7765-5.4129-16.5815c2.4125,.3093,4.8562,.7424,7.3616,1.2683Zm-3.3406,16.4888c-.0619,0-.0927-.031-.1546-.031-4.8562-1.0209-9.7434-1.5778-14.5686-1.7324l9.0628-15.7154,5.6604,17.4788Zm-7.207-18.1283l-8.5987,14.8801-8.7535-15.1276c5.7224-.4331,11.5682-.3712,17.3523,.2475Zm-9.7122,16.303c-4.98,0-9.898,.4022-14.7542,1.2994l5.5675-17.2003,9.1866,15.9009ZM89.3288,2.2894l-5.3202,16.3959-11.6918-12.9931c5.5675-1.6395,11.2897-2.7533,17.0121-3.4029Zm-6.1245,18.0047c-4.8252,1.0207-9.5576,2.4748-14.1663,4.3928l1.8867-18.0356,12.2795,13.6428Zm-13.9499-13.6118l-1.7939,17.1074-14.1355-10.2705c5.1035-2.7224,10.4237-5.0425,15.9294-6.8369Zm-2.2269,18.8708c-3.8973,1.7324-7.7018,3.7743-11.3826,6.1562-.5258,.3404-1.0517,.7426-1.5775,1.0829l-1.8867-18.0356,14.8469,10.7966Zm-16.4863-10.4253l1.7631,17.0766-15.9294-7.0842c4.3922-3.7123,9.1555-7.0844,14.1663-9.9924Zm1.7321,18.9017c-4.052,2.9389-7.7945,6.1872-11.197,9.7449l-5.5675-17.2003,16.7646,7.4554Zm-30.0031,5.8159c.8352-1.0517,1.7014-2.1346,2.5673-3.1553,.0619-.0619,.0929-.0929,.1238-.1546,2.8146-3.2794,5.8149-6.4037,9.0008-9.2807l5.32,16.365-17.1048-3.6504c.031-.031,.0619-.0619,.0927-.1239Zm17.3215,5.5376c-3.3406,3.6814-6.3408,7.6411-8.9082,11.8483l-9.0628-15.6535,17.9709,3.8052Zm-19.3319-2.8153l8.6297,14.9111H11.4136c2.5054-5.2591,5.4747-10.2397,8.8462-14.9111Zm9.2793,16.5817c-2.4435,4.269-4.547,8.7547-6.2172,13.457l-12.094-13.457H29.5391Zm-19.4556,1.2373l11.5063,12.8075-17.043,3.6194c1.361-5.6613,3.2169-11.1678,5.5368-16.4269Zm-6.2481,19.5824l13.888,10.1161-15.9296,7.0842c.1548-5.723,.8352-11.5082,2.0416-17.2003Zm-2.1033,20.4176l15.7438,7.0225-14.1355,10.2397c-1.0515-5.723-1.5773-11.508-1.6083-17.2622Zm2.2269,20.4177l16.8575,3.5885-11.692,12.9621c-2.196-5.3518-3.9281-10.9202-5.1654-16.5506Zm18.5586,4.2072c1.5156,4.6713,3.4643,9.2498,5.846,13.6426H10.2072l12.3105-13.6426Zm-12.1249,15.3133H27.6214l-8.7226,15.0967c-3.2787-4.7642-6.1243-9.8376-8.506-15.0967Zm19.0227,.2166c.7423,1.2993,1.4846,2.5675,2.2889,3.805,1.9177,2.9389,4.021,5.723,6.2479,8.3527l-17.7234,3.7741,9.1866-15.9318Zm-8.6608,17.5405l16.8265-3.5887-5.382,16.6127c-4.2066-3.9908-8.042-8.3837-11.4445-13.024Zm18.6205-3.7123c3.3406,3.7123,6.9595,7.0842,10.8568,10.1161l-16.5173,7.3318,5.6604-17.4478Zm-4.8252,18.9017l15.713-6.9915-1.825,17.3861c-4.9179-3.0628-9.5885-6.5276-13.888-10.3946Zm17.4451-7.4864c3.99,2.908,8.2585,5.4757,12.7436,7.6103l-14.6613,10.6419,1.9177-18.2522Zm-.8042,19.5205l13.9499-10.1468,1.8248,17.3859c-5.4747-1.949-10.7639-4.393-15.7748-7.2391Zm15.5582-10.9822c4.485,1.9799,9.1866,3.5885,14.0428,4.764l-12.1251,13.488-1.9177-18.252Zm12.8055,21.7787c-3.1858-.6805-6.4027-1.5468-9.5268-2.5368l11.5064-12.7765,5.382,16.5817c-2.3818-.3095-4.8562-.7424-7.3616-1.2685Zm3.3406-16.5196c.0619,.031,.1237,.031,.1546,.031,4.8562,1.0517,9.7434,1.6085,14.5995,1.7632l-9.063,15.7154-5.6912-17.5096Zm7.2378,18.1593l8.5989-14.8801,8.7226,15.1275c-5.7841,.4331-11.5991,.3404-17.3215-.2474Zm9.7124-16.3032h.3094c4.856,0,9.6814-.4331,14.4447-1.2993l-5.5985,17.2003-9.1557-15.901Zm10.7949,16.2413l5.3512-16.365,11.6609,12.9621c-5.5366,1.6395-11.2588,2.7841-17.0121,3.4029Zm6.1245-17.9737c4.8562-1.0209,9.5885-2.5058,14.1663-4.3928l-1.8867,18.0047-12.2795-13.6118Zm13.9499,13.6118l1.8248-17.1076,14.1045,10.2397c-5.1035,2.7533-10.4237,5.0735-15.9294,6.8678Zm2.2579-18.8709c3.8973-1.7324,7.7018-3.805,11.3516-6.1562,.5567-.3712,1.0517-.7424,1.5775-1.1136l1.9177,18.0664-14.8469-10.7966Zm16.4863,10.4253l-1.7941-17.1074,15.9294,7.1152c-4.3922,3.7433-9.1555,7.0842-14.1353,9.9922Zm-1.7631-18.9017c4.0829-2.9389,7.7945-6.2181,11.197-9.7756l5.5985,17.2313-16.7955-7.4556Zm18.3111,6.7749l-5.2893-16.365,17.074,3.6194c-3.5571,4.6094-7.5162,8.8786-11.7847,12.7455Zm-5.5985-18.1593c3.3096-3.6504,6.3099-7.6103,8.9082-11.8175l9.0318,15.6535-17.94-3.836Zm19.3009,2.846l-8.5987-14.9111h17.445c-2.4744,5.1972-5.4439,10.209-8.8462,14.9111Zm-9.2793-16.5815c2.4744-4.2692,4.547-8.7858,6.2172-13.488l12.1249,13.488h-18.3421Zm19.4865-1.2375l-11.5372-12.8073,17.074-3.6196c-1.361,5.6303-3.2169,11.137-5.5368,16.4269Zm6.2481-19.5822l-13.919-10.1161,15.9603-7.0842c-.1856,5.723-.866,11.508-2.0414,17.2003Z"/><g><path class="cls-3" d="M140.999,135.7831c-.0258-.1-.0693-.1967-.1322-.2854-.1177-.1628-.2821-.2708-.461-.3192-.0145-.0065-.0274-.0129-.0403-.0193-1.5748-.3402-3.1803-.5272-4.847-.5884h-.0097c-.5851-.0306-1.1976-.0613-1.8134-.0016l-.0113,.0016c-2.3501,.0306-4.7599,.3402-7.1407,.927l-.0048,.0016c-.4948,.0919-1.0203,.2467-1.5458,.4014h-.0322l-.0564,.0145c-.1322,.0081-.2579,.0451-.3691,.1096h-.0064c-.2434,.0596-.5142,.1515-.7866,.2402l-.0177,.0064c-3.6187,1.1769-7.1762,2.9712-10.4548,5.3523-.3707,.2483-.7109,.5256-1.051,.8045-.0338,.0161-.0758,.0419-.1161,.0709-.079,.0451-.1515,.1032-.2128,.1725-1.2283,.9641-2.3953,1.9862-3.4769,3.0663v.0322c-.7109,.711-1.3605,1.3913-2.0101,2.1651-2.8772,3.371-5.0727,7.145-6.4025,11.0739-1.3298-3.9288-3.4962-7.7029-6.4331-11.0739-.3724-.4643-.8043-.9286-1.2379-1.3929-.1854-.216-.403-.4321-.5884-.6191-.0613-.0613-.0919-.0919-.1547-.1532l-.0306-.0322c-1.0526-1.0834-2.2244-2.1071-3.4817-3.0728-.0596-.0645-.1273-.1193-.2015-.1612-.0435-.0322-.087-.058-.1209-.0758-.3401-.3095-.7108-.5562-1.0526-.8045-1.7005-1.2365-3.4946-2.3199-5.3193-3.2485-.9897-.4949-2.01-.9592-3.032-1.3607-.6802-.2789-1.3911-.5256-2.1019-.7432l-.0209-.0081c-.0564-.0226-.1096-.0258-.166-.0532-.0306-.0306-.0612-.0306-.0612-.0306l-.619-.1854-.0129-.0032c-.0145-.0064-.029-.0113-.0435-.0177l-.0177-.0065c-.0129-.0048-.0258-.0097-.0387-.0129-.0306-.0129-.0564-.0193-.0838-.021-.021-.0032-.0435-.0081-.0645-.0097-.0338-.021-.087-.0226-.1402-.0226-.2789-.1241-.5883-.1854-.8672-.2789-.245-.0613-.4916-.1225-.7076-.1532h-.0032c-1.3604-.3418-2.6903-.5884-3.9282-.7126-1.0816-.1241-2.1648-.1854-3.2174-.1854-.432-.0306-.835-.0306-1.2364-.0306-.1854,0-.3707,0-.5577,.0306-1.6699,.0306-3.3092,.2483-4.855,.5884-.0403,0-.0677,.0129-.0903,.0306-.129,.0435-.2499,.1193-.3465,.2257-.021,.0177-.0403,.0355-.058,.0532v.0177l-.0065,.0081c-.0193,.0274-.0371,.0548-.0532,.0838-.1096,.1677-.1531,.3531-.1257,.5385,.3095,3.1872,1.2364,6.3728,2.7209,9.4988,.8043,1.7008,1.7634,3.371,2.9079,4.9799,0,.0306,.0306,.0935,.0612,.1241,.6818,.9592,1.4233,1.9169,2.1664,2.7842,.7108,.8351,1.4217,1.5767,2.1035,2.2586,.0306,0,.0306,.0306,.0613,.0306,1.2525,1.28,2.6548,2.4859,4.1861,3.6144,3.1319,1.4235,6.396,2.6036,9.7682,3.5209-1.6151-.6271-3.19-1.3816-4.7068-2.2473l13.5448-.6674,6.7748,4.8751c-.6335,.0983-1.2911,.1709-1.9649,.2193,1.1332,.058,2.2744,.0887,3.4221,.0887,1.1154,0,2.2244-.0274,3.3253-.0838-.6238-.0435-1.2395-.1193-1.8359-.2241l6.7942-4.8897h.0048l13.5174,.6819c-1.5216,.8802-3.0965,1.6122-4.7132,2.2409,3.3834-.9189,6.6571-2.1055,9.7987-3.5338,3.2851-2.4489,6.0946-5.3604,8.3513-8.5202,.0838-.0758,.1548-.1677,.2031-.2708v-.0016c3.1239-4.485,5.1049-9.4666,5.6304-14.4787,.0274-.0838,.0032-.2176-.0467-.3337Zm-79.1058,.6755c.9897-.1241,1.9794-.2176,2.9997-.2483h.3707c1.2992-.0306,2.629,.0306,4.0217,.216,1.3927,.1548,2.8773,.4337,4.4231,.8367,.1854,.0306,.4013,.0919,.6189,.1532l.0113,.0032,2.8144,10.0373-5.6755-4.0836c-.0258-.0242-.0548-.0467-.0838-.0693l-9.5135-6.8436,.0129-.0016Zm3.8492,12.9198l-.0145-.021c-.9897-1.4525-1.8553-2.9389-2.5661-4.4544-1.0832-2.3505-1.8875-4.6704-2.2889-7.0838v-.021l9.4554,6.8033c.029,.0258,.058,.0516,.0903,.0742l5.819,4.1868-10.4951,.5159Zm9.8487,9.7519c-.3385-.2144-.6464-.4611-.9849-.7077-1.6715-1.2075-3.1867-2.5053-4.5472-3.8675,0-.0306-.0306-.0306-.0628-.0613-.6496-.6191-1.267-1.2994-1.9488-2.1039-.4014-.4337-.7721-.8964-1.1428-1.3913l11.5154-.5659,11.135,8.0108-13.9639,.6868Zm3.7396-10.1066l-3.082-10.9981,.0274,.0097c.4949,.1548,.9591,.3402,1.4539,.5578,.9591,.3708,1.9488,.8045,2.8756,1.2994,1.7634,.8657,3.4962,1.9169,5.1355,3.0921,.3095,.2176,.6496,.4643,.9575,.7126l.0226,.0145,3.7428,13.3212-11.1334-8.0092Zm19.2155,15.8958l-.0225-.0242,.0306,.0242h-.0081Zm.5883-2.9712c-.0935,.3724-.187,.7738-.2482,1.1446l-6.2413-4.4898-3.6461-12.9746c.0081,.0048,.0145,.0113,.0209,.0177,.4642,.4321,.9268,.8657,1.3911,1.2994,.0628,.0613,.0935,.0919,.1547,.1548,.0307,.0306,.0629,.0613,.0935,.0919,.1547,.1548,.3095,.3095,.432,.4949,3.9911,4.2077,6.7748,9.1264,8.0434,14.2305v.0306Zm35.8181-25.7074c1.051,0,2.1019,.0935,3.0932,.2483h.0081l-15.2406,10.9691,2.8031-9.9792h.0258c3.0932-.9286,6.2477-1.33,9.3104-1.2381Zm-27.6313,22.3638l-6.2074,4.4673v-.0097c-.0935-.3708-.1854-.711-.2482-1.0817,1.4539-5.9714,5.0114-11.7252,10.0841-16.3037l.0064-.0065-3.6348,12.9343Zm5.9221-14.8769h.0258c.3401-.2483,.6496-.4949,.9897-.7432,2.9675-2.1635,6.1833-3.8015,9.4603-4.9477l-3.0884,10.99-11.127,8.0076,3.7396-13.3067Zm19.791,7.3014c-2.1342,2.7519-4.7325,5.2588-7.671,7.3933-.3401,.2467-.6802,.4949-1.051,.711l-13.8882-.6803-.021-.0016,11.1382-8.014,11.5122,.5659c-.0065,.0081-.0129,.0161-.0193,.0258Zm6.093-13.2406c-.7108,4.0191-2.4404,7.9753-4.9131,11.593l-10.4903-.5143,15.405-11.0852-.0016,.0065Z"/><path class="cls-3" d="M138.9003,65.1542c-.6599,0-1.2951-.2205-1.8198-.6368-.6135-.487-1.0008-1.1848-1.0906-1.9636-.0888-.7783,.1301-1.5453,.6166-2.1594,.4875-.6141,1.1846-1.0014,1.9633-1.0913,.787-.0899,1.5461,.1302,2.1595,.6172,.6145,.4875,1.0018,1.1848,1.0916,1.9636,.1849,1.6073-.9729,3.0652-2.5799,3.2507-.1136,.0134-.2282,.0196-.3408,.0196Zm.0072-4.1948c-.0485,0-.0971,.0031-.1456,.0088-.3346,.0382-.6341,.2045-.8427,.4679s-.3026,.5924-.2644,.9265,.2045,.6332,.4678,.8429c.2644,.2092,.5949,.3021,.9264,.2644,.6899-.0795,1.1867-.705,1.1071-1.395-.0382-.3342-.2045-.6332-.4678-.8424-.2251-.1787-.4978-.2732-.7808-.2732Z"/><path class="cls-3" d="M61.0663,65.1542c-.1131,0-.2267-.0062-.3408-.0191-.7792-.0899-1.4764-.4777-1.9633-1.0913-.4875-.6141-.7064-1.381-.6171-2.1599h0c.0899-.7788,.4771-1.4761,1.0906-1.9636,.6145-.487,1.3824-.7045,2.1595-.6172,.7787,.0899,1.4764,.4772,1.9633,1.0913,.4875,.6141,.7064,1.381,.6166,2.1599-.0893,.7783-.4766,1.4756-1.0901,1.9631-.5241,.4163-1.1598,.6368-1.8187,.6368Zm-.0083-4.1948c-.283,0-.5556,.0945-.7803,.2732-.2634,.2092-.4296,.5082-.4678,.8424l-.0005,.0005c-.0382,.3342,.0558,.6631,.2649,.9265s.5081,.4297,.8427,.4684c.3362,.0367,.663-.0558,.9259-.2649,.2634-.2092,.4296-.5087,.4678-.8429,.0387-.3342-.0553-.6631-.2644-.9265s-.5081-.4297-.8422-.4679c-.0491-.0057-.0976-.0088-.1461-.0088Zm-2.0805,1.02h0Z"/></g></g></svg>