<?xml version="1.0" encoding="utf-8"?>
<!-- Generator: Adobe Illustrator 26.0.3, SVG Export Plug-In . SVG Version: 6.00 Build 0)  -->
<svg version="1.1" id="Calque_1" xmlns="http://www.w3.org/2000/svg" xmlns:xlink="http://www.w3.org/1999/xlink" x="0px" y="0px"
	 viewBox="0 0 209.1 60.5" style="enable-background:new 0 0 209.1 60.5;" xml:space="preserve">
<style type="text/css">
	.st0{fill:#151F36;stroke:#151F36;stroke-width:0.1751;stroke-miterlimit:10;}
</style>
<g id="Recto_00000180341751433709290820000003520375031256392631_">
	<g>
		<g id="Sanzaru">
			<path id="S" class="st0" d="M23.9,22c-0.6-1-1.5-1.8-2.5-2.5s-2.2-1.2-3.6-1.6c-1.3-0.4-2.7-0.7-4.1-1.1c-1.4-0.3-2.8-0.7-4.1-1
				C8.3,15.4,7.1,15,6,14.4c-1.1-0.6-1.9-1.3-2.5-2.2c-0.6-0.9-1-2-1-3.4c0-1.3,0.3-2.4,0.9-3.3s1.4-1.7,2.4-2.3c1-0.6,2-1,3.2-1.3
				s2.3-0.4,3.4-0.4c1.6,0,3.1,0.2,4.6,0.7s2.9,1.1,4.2,1.9c0.1,0.1,0.2,0.1,0.4,0.2s0.3,0.2,0.5,0.4c0.2,0.1,0.4,0.2,0.5,0.3
				c0.2,0.1,0.3,0.1,0.3,0.1c0.2,0,0.3-0.1,0.5-0.2c0.1-0.2,0.2-0.3,0.2-0.5s0-0.3-0.1-0.3c0-0.1-0.1-0.1-0.2-0.2
				c-0.6-0.6-1.4-1.1-2.3-1.6c-0.9-0.5-1.9-0.9-2.9-1.2c-1-0.3-2.1-0.6-3.1-0.7c-1-0.2-2-0.3-2.8-0.3c-1.3,0-2.6,0.2-3.9,0.5
				C7,1,5.8,1.5,4.7,2.2S2.7,3.8,2,4.9S1,7.3,1,8.8c0,1.1,0.2,2.1,0.6,3c0.4,0.9,0.9,1.7,1.6,2.3c0.7,0.7,1.4,1.2,2.3,1.7
				c0.9,0.5,1.8,0.8,2.8,1.1c0.8,0.2,1.7,0.4,2.8,0.6c1.1,0.2,2.1,0.4,3.3,0.7c1.1,0.3,2.2,0.6,3.3,1s2.1,0.9,2.9,1.4
				c0.8,0.6,1.5,1.3,2.1,2.1c0.5,0.8,0.8,1.8,0.8,2.9c0,1.4-0.3,2.6-0.9,3.6c-0.6,1-1.4,1.9-2.4,2.5c-1,0.7-2.1,1.2-3.3,1.5
				s-2.4,0.5-3.6,0.5c-2.4,0-4.6-0.5-6.5-1.4c-1.9-0.9-3.8-2.1-5.6-3.6c-0.1-0.1-0.3-0.2-0.4-0.2c-0.2,0-0.4,0.1-0.5,0.2
				c-0.1,0.2-0.2,0.3-0.2,0.5s0.1,0.3,0.3,0.5c1.7,1.7,3.7,3,5.9,3.9c2.2,1,4.5,1.4,7,1.4c1.4,0,2.8-0.2,4.2-0.6
				c1.4-0.4,2.6-1,3.7-1.7c1.1-0.8,2-1.8,2.7-2.9c0.7-1.2,1-2.6,1-4.1C24.8,24.3,24.5,23,23.9,22z"/>
			<path id="A_00000007424852624935420360000010421824775948096661_" class="st0" d="M55.3,33.2c-0.4-0.9-0.8-2.1-1.4-3.6
				s-1.3-3.2-2-5.1c-0.8-1.9-1.6-3.9-2.4-5.9s-1.6-4-2.4-6s-1.5-3.8-2.2-5.4s-1.2-3-1.6-4.1c-0.5-1.1-0.7-1.8-0.9-2.2
				c-0.1-0.3-0.3-0.4-0.6-0.4s-0.5,0.1-0.7,0.4c-0.1,0.3-0.4,1-0.8,2.2c-0.4,1.1-1,2.5-1.6,4.1s-1.3,3.5-2.1,5.4c-0.8,2-1.5,4-2.3,6
				s-1.5,4-2.3,5.9c-0.7,1.9-1.4,3.6-2,5.1s-1,2.7-1.4,3.6c-0.4,0.9-0.5,1.4-0.5,1.4c0,0.4,0.1,0.6,0.4,0.7c0.1,0,0.1,0,0.1,0h0.1
				c0.3,0,0.5-0.1,0.7-0.4L39.6,8.4l10.5,26.5c0.1,0.3,0.3,0.4,0.6,0.4c0.1,0,0.1,0,0.1,0h0.1c0.3-0.1,0.4-0.3,0.4-0.6
				c0,0-0.2-0.4-0.4-1.2c-0.3-0.8-0.7-1.8-1.2-3c-0.5-1.3-1-2.7-1.7-4.3c-0.6-1.6-1.3-3.2-1.9-4.9s-1.3-3.4-2-5
				c-0.6-1.6-1.2-3.1-1.8-4.5c-0.6-1.4-1-2.5-1.4-3.4s-0.6-1.5-0.7-1.8l1.4-3.7l12.7,32c0.1,0.3,0.3,0.4,0.7,0.4
				c0.2,0,0.3-0.1,0.5-0.2c0.1-0.1,0.2-0.3,0.2-0.5C55.8,34.6,55.6,34.1,55.3,33.2z"/>
			<path id="N" class="st0" d="M88.4,1c0-0.2-0.1-0.3-0.2-0.5c-0.1-0.1-0.3-0.2-0.5-0.2s-0.3,0.1-0.5,0.2C87.1,0.6,87,0.8,87,1v31.5
				L64.3,0.8c-0.2-0.2-0.3-0.3-0.5-0.3c-0.4,0-0.6,0.2-0.6,0.7c0,0.2,0,0.3,0.1,0.4l24,33.4c0.1,0.2,0.3,0.3,0.5,0.3
				c0.5,0,0.7-0.2,0.7-0.7L88.4,1z M82.4,33.4c-0.5-0.7-1.2-1.7-2-2.9s-1.8-2.5-2.8-4c-1.1-1.5-2.2-3-3.3-4.6
				c-1.1-1.6-2.3-3.1-3.4-4.7c-1.1-1.6-2.1-3-3-4.2c-0.9-1.3-1.7-2.4-2.4-3.3c-0.6-0.9-1.1-1.5-1.3-1.8c-0.2-0.2-0.4-0.3-0.6-0.3
				c-0.1,0-0.3,0.1-0.4,0.2C63.1,8,63,8.1,63,8.2v26.3c0,0.5,0.2,0.7,0.7,0.7c0.2,0,0.3-0.1,0.5-0.2c0.1-0.1,0.2-0.3,0.2-0.5V10.4
				L81.9,35c0.1,0.2,0.3,0.3,0.5,0.3s0.3-0.1,0.5-0.2c0.2-0.1,0.2-0.3,0.2-0.5C83.2,34.5,82.9,34.1,82.4,33.4z"/>
			<path id="Z" class="st0" d="M120.7,8.5c0-0.2-0.1-0.4-0.2-0.5c-0.1-0.1-0.3-0.2-0.5-0.2s-0.4,0.1-0.5,0.3L99.8,34.2
				c-0.1,0.1-0.2,0.3-0.2,0.4c0,0.2,0.1,0.4,0.3,0.5c0.2,0.1,0.4,0.2,0.5,0.2h19.2c0.2,0,0.3-0.1,0.5-0.2c0.2-0.1,0.2-0.3,0.2-0.5
				c0-0.5-0.2-0.7-0.7-0.7h-17.9l18.8-25.1C120.7,8.8,120.7,8.6,120.7,8.5z M120.5,0.5c-0.1-0.1-0.3-0.2-0.5-0.2H95
				c-0.2,0-0.3,0.1-0.5,0.2c-0.1,0.1-0.2,0.3-0.2,0.5s0.1,0.4,0.2,0.5s0.3,0.2,0.5,0.2h23.7c-0.2,0.3-0.8,1-1.6,2.1s-1.8,2.4-3,4
				s-2.5,3.3-3.9,5.2c-1.4,1.9-2.9,3.8-4.3,5.8c-1.5,2-2.9,3.8-4.2,5.7c-1.4,1.8-2.6,3.5-3.6,4.9c-1.1,1.4-1.9,2.6-2.6,3.5
				c-0.6,0.9-1,1.4-1,1.5c0,0.2,0.1,0.4,0.2,0.5s0.3,0.2,0.5,0.2s0.4-0.1,0.6-0.3l24.9-33.4c0.1-0.1,0.1-0.2,0.1-0.2
				c0-0.1,0-0.1,0-0.3C120.7,0.8,120.7,0.7,120.5,0.5z"/>
			<path id="A" class="st0" d="M152.8,33.2c-0.4-0.9-0.8-2.1-1.4-3.6c-0.6-1.5-1.3-3.2-2-5.1c-0.8-1.9-1.6-3.9-2.4-5.9
				c-0.8-2-1.6-4-2.4-6c-0.8-2-1.5-3.8-2.2-5.4s-1.2-3-1.6-4.1c-0.5-1.1-0.7-1.8-0.9-2.2c-0.1-0.3-0.3-0.4-0.6-0.4s-0.5,0.1-0.7,0.4
				c-0.1,0.3-0.4,1-0.8,2.2c-0.4,1.1-1,2.5-1.6,4.1s-1.3,3.5-2.1,5.4c-0.8,2-1.5,4-2.3,6s-1.5,4-2.3,5.9c-0.7,1.9-1.4,3.6-2,5.1
				s-1,2.7-1.4,3.6c-0.4,0.9-0.5,1.4-0.5,1.4c0,0.4,0.1,0.6,0.4,0.7c0.1,0,0.1,0,0.1,0h0.1c0.3,0,0.5-0.1,0.7-0.4l10.2-26.5
				l10.5,26.5c0.1,0.3,0.3,0.4,0.6,0.4c0.1,0,0.1,0,0.1,0h0.1c0.3-0.1,0.4-0.3,0.4-0.6c0,0-0.2-0.4-0.4-1.2c-0.3-0.8-0.7-1.8-1.2-3
				c-0.5-1.3-1-2.7-1.7-4.3c-0.6-1.6-1.3-3.2-1.9-4.9c-0.7-1.7-1.3-3.4-2-5c-0.6-1.6-1.2-3.1-1.8-4.5c-0.6-1.4-1-2.5-1.4-3.4
				s-0.6-1.5-0.7-1.8l1.4-3.7l12.7,32c0.1,0.3,0.3,0.4,0.7,0.4c0.2,0,0.3-0.1,0.5-0.2c0.1-0.1,0.2-0.3,0.2-0.5
				C153.4,34.6,153.2,34.1,152.8,33.2z"/>
			<path id="R" class="st0" d="M179.6,30.8c-0.5-1.1-1-2.2-1.6-3.4s-1.1-2.4-1.6-3.5s-1-2.1-1.3-2.9c-0.4-0.8-0.6-1.3-0.7-1.6
				c-0.1-0.3-0.3-0.4-0.6-0.4h-8v-2.9h8.1c0.2,0,0.3,0,0.5,0c1-0.2,2-0.5,2.8-0.9c0.9-0.5,1.6-1,2.2-1.7c0.6-0.7,1.1-1.5,1.4-2.4
				c0.4-0.9,0.5-1.9,0.5-2.9c0-1.1-0.2-2.1-0.6-3.1c-0.4-0.9-1-1.8-1.7-2.5s-1.5-1.2-2.5-1.6s-2-0.6-3.1-0.6h-12.7
				c-0.4,0-0.7,0.2-0.7,0.7v33.6c0,0.2,0.1,0.3,0.2,0.5c0.1,0.1,0.3,0.2,0.5,0.2s0.3-0.1,0.5-0.2c0.2-0.1,0.2-0.3,0.2-0.5v-33h2.8
				v32.7c0,0.2,0.1,0.3,0.2,0.5c0.1,0.1,0.3,0.2,0.5,0.2s0.3-0.1,0.5-0.2c0.2-0.1,0.2-0.3,0.2-0.5v-14h7.7l6.6,14.4
				c0.1,0.3,0.3,0.4,0.6,0.4c0.2,0,0.3-0.1,0.5-0.2c0.1-0.1,0.2-0.3,0.2-0.5c0-0.1-0.2-0.5-0.5-1.2C180.4,32.8,180,31.9,179.6,30.8z
				 M165.6,1.7h7.8c0.9,0,1.8,0.2,2.5,0.5c0.8,0.3,1.5,0.8,2.1,1.4s1.1,1.3,1.4,2c0.4,0.8,0.5,1.6,0.5,2.5s-0.2,1.8-0.5,2.6
				c-0.3,0.8-0.8,1.5-1.4,2.1c-0.6,0.6-1.3,1.1-2.1,1.4c-0.8,0.4-1.6,0.5-2.6,0.5h-7.8v-13H165.6z"/>
			<path id="U" class="st0" d="M209,1v25.6c0,1.2-0.2,2.3-0.7,3.3c-0.4,1-1,2-1.8,2.7c-0.8,0.8-1.7,1.4-2.7,1.9s-2.1,0.7-3.3,0.7
				h-3.4c-1.2,0-2.3-0.2-3.4-0.7c-1.1-0.5-2-1.1-2.8-1.9c-0.8-0.8-1.4-1.7-1.9-2.7c-0.5-1.1-0.7-2.2-0.7-3.4V1
				c0-0.2,0.1-0.3,0.2-0.5c0.1-0.1,0.3-0.2,0.5-0.2s0.3,0.1,0.5,0.2c0.1,0.1,0.2,0.3,0.2,0.5v25.6c0,1,0.2,1.9,0.6,2.8
				c0.4,0.9,0.9,1.7,1.6,2.3c0.7,0.7,1.4,1.2,2.3,1.6c0.9,0.4,1.8,0.6,2.8,0.6h3.4c1,0,1.9-0.2,2.8-0.6c0.9-0.4,1.6-0.9,2.3-1.6
				c0.6-0.7,1.1-1.5,1.5-2.3c0.4-0.9,0.6-1.8,0.6-2.8V1.7h-2.4l-3.4,8.5c-0.2,0.4-0.5,0.6-0.9,0.6h-0.8l3.7-9.2h-1.9l-3.4,8.5
				c-0.2,0.4-0.5,0.6-0.9,0.6h-0.8l3.7-9.2l0.2-0.6c0.2-0.4,0.6-0.7,1.1-0.7h6.6c0.2,0,0.3,0.1,0.5,0.2C208.9,0.7,209,0.8,209,1z"/>
		</g>
	</g>
</g>
<g>
	<path class="st0" d="M59.6,46.6h-8v5.5h7.5v1.1h-7.5v6h8v1.1h-9.1V45.5h9.1V46.6z"/>
	<path class="st0" d="M78.9,45.5h1.2l-5.5,14.7h-1.5l-5.5-14.7h1.2L73.9,59L78.9,45.5z"/>
	<path class="st0" d="M98.2,46.6h-8v5.5h7.5v1.1h-7.5v6h8v1.1h-9.1V45.5h9.1V46.6z"/>
	<path class="st0" d="M118,45.5h1.1v14.7h-1.5l-9.2-13.4l0.1,7.2v6.2h-1.1V45.5h1.5l9.2,13.4l-0.1-7.2L118,45.5L118,45.5z"/>
	<path class="st0" d="M139.2,45.5v1.1h-5v13.6h-1.1V46.6h-5v-1.1C128.1,45.5,139.2,45.5,139.2,45.5z"/>
	<path class="st0" d="M153.1,52.2c0.8,0.2,1.4,0.3,1.9,0.4s0.9,0.3,1.5,0.5c0.5,0.2,0.9,0.5,1.2,0.7c0.3,0.3,0.5,0.6,0.7,1
		s0.3,0.9,0.3,1.4c0,1.4-0.5,2.4-1.5,3.1s-2.3,1.1-3.8,1.1c-1.8,0-3.2-0.4-4.2-1.2c-1-0.8-1.7-1.9-1.9-3.3h1.1
		c0.6,2.3,2.3,3.4,5,3.4c1.3,0,2.3-0.3,3.1-0.8s1.1-1.3,1.1-2.3c0-0.9-0.3-1.5-1-1.9s-1.8-0.7-3.6-1.1c-0.9-0.2-1.7-0.4-2.3-0.6
		s-1.1-0.4-1.6-0.7c-0.5-0.3-0.9-0.7-1.1-1.1c-0.2-0.4-0.3-0.9-0.3-1.5c0-1.3,0.5-2.3,1.5-3s2.2-1.1,3.7-1.1s2.8,0.3,3.7,1
		s1.6,1.5,1.9,2.6h-1.1c-0.7-1.7-2.2-2.5-4.5-2.5c-1.2,0-2.2,0.3-2.9,0.8s-1.1,1.3-1.1,2.3c0,0.7,0.3,1.3,0.9,1.6
		C150.1,51.4,151.3,51.8,153.1,52.2z"/>
</g>
</svg>
